<svg width="352" height="295" viewBox="0 0 352 295" fill="none" xmlns="http://www.w3.org/2000/svg">
<path opacity="0.5" d="M342.422 206.566L252.958 267.893C248.957 270.65 242.542 271.605 238.619 269.967L18.378 180.868C14.4687 179.357 14.6431 175.855 18.6436 173.098L108.107 111.77C112.108 109.013 118.524 108.058 122.447 109.696L342.701 198.923C346.46 200.321 346.436 203.936 342.422 206.566Z" fill="#13247A"/>
<path d="M342.372 174.186L322.422 173.128L120.315 91.3481C116.406 89.8375 109.976 90.6649 105.976 93.4219L22.7181 150.592L12.5303 150.021L13.5554 159.458C13.6939 160.733 14.6411 161.791 16.3832 162.505L236.638 251.732C240.547 253.243 246.976 252.415 250.977 249.658L340.441 188.33C342.633 186.802 343.687 185.01 343.52 183.48L342.509 174.171L342.372 174.186Z" fill="url(#paint0_linear_2_1038)"/>
<path d="M339.416 178.894L249.952 240.222C245.952 242.979 239.536 243.934 235.613 242.296L15.3723 153.197C11.463 151.686 11.6373 148.183 15.6378 145.426L105.102 84.0985C109.102 81.3415 115.518 80.3865 119.441 82.0247L339.695 171.252C343.454 172.65 343.416 176.137 339.416 178.894Z" fill="url(#paint1_linear_2_1038)"/>
<path d="M339.291 177.747L249.827 239.074C245.827 241.831 239.411 242.786 235.488 241.148L15.2474 152.049C13.7933 151.433 12.8738 150.63 12.4888 149.639C12.367 151.072 13.3558 152.513 15.3859 153.324L235.64 242.551C239.55 244.062 245.979 243.234 249.98 240.477L339.443 179.149C341.896 177.464 342.922 175.417 342.331 173.804C342.181 174.981 341.223 176.376 339.291 177.747Z" fill="white"/>
<path d="M338.666 170.718L234.749 242.003L16.3871 153.602L120.168 82.3328L338.666 170.718Z" fill="#0F65B2"/>
<path d="M74.2955 110.798L60.4855 120.298C59.8415 120.755 58.8819 120.859 58.3058 120.664L58.1549 120.551C57.5788 120.355 57.5234 119.845 58.1673 119.388L71.9773 109.889C72.6212 109.432 73.5809 109.327 74.1569 109.523L74.3079 109.636C74.8839 109.831 74.8023 110.356 74.2955 110.798Z" fill="#0063AD"/>
<path d="M43.3541 151.576L41.5456 152.805L36.9093 150.986L38.7178 149.757L43.3541 151.576Z" fill="white"/>
<path d="M46.4504 149.433L44.779 150.647L40.1288 148.7L41.9512 147.599L46.4504 149.433Z" fill="white"/>
<path d="M49.6838 147.276L47.9986 148.362L43.3623 146.543L45.0337 145.329L49.6838 147.276Z" fill="white"/>
<path d="M52.9033 144.99L51.2319 146.204L46.5956 144.385L48.267 143.172L52.9033 144.99Z" fill="white"/>
<path opacity="0.6" d="M155.873 170.964C176.24 168.751 191.79 158.108 190.604 147.192C189.418 136.276 171.946 129.22 151.579 131.433C131.212 133.645 115.662 144.288 116.848 155.204C118.034 166.12 135.506 173.176 155.873 170.964Z" fill="#041860"/>
<path d="M157.092 182.185C142.423 183.779 127.422 182.312 115.667 177.525C104.062 172.85 97.322 165.712 96.4078 157.296C95.5074 149.007 100.681 140.446 110.874 133.403C131.917 118.989 168.247 115.043 191.895 124.602C203.5 129.276 210.24 136.415 211.154 144.831C212.054 153.119 206.881 161.681 196.688 168.723C186.111 176.065 171.761 180.592 157.092 182.185ZM150.457 121.104C135.925 122.683 121.849 127.179 111.396 134.379C101.463 141.264 96.3853 149.428 97.2442 157.334C98.1169 165.368 104.829 172.251 115.995 176.715C139.355 186.176 175.273 182.275 195.919 168.033C205.852 161.148 210.93 152.984 210.071 145.077C209.198 137.044 202.486 130.161 191.32 125.696C179.853 121.007 164.989 119.525 150.457 121.104Z" fill="white"/>
<path d="M101.769 28.9379L99.741 27.4248L98.0852 29.338L100.113 30.8512L101.769 28.9379Z" fill="white"/>
<path d="M108.338 28.2165L106.31 26.7034L104.654 28.6167L106.682 30.1298L108.338 28.2165Z" fill="white"/>
<path d="M104.72 25.5093L102.692 23.9962L101.037 25.9095L103.065 27.4226L104.72 25.5093Z" fill="white"/>
<path d="M105.386 31.6451L103.358 30.132L101.702 32.0453L103.73 33.5584L105.386 31.6451Z" fill="white"/>
<path d="M238.579 209.589C238.168 209.634 237.866 209.408 237.824 209.026C237.783 208.643 238.029 208.358 238.427 208.186C249.174 206.245 259.809 201.993 268.193 196.179C277.222 189.908 282.563 184.167 283.668 179.015C283.763 178.618 284.161 178.446 284.586 178.528C285.011 178.611 285.19 178.979 285.094 179.376C283.756 184.941 278.443 190.937 269.017 197.38C260.359 203.223 249.6 207.617 238.579 209.589Z" fill="white"/>
<path d="M284.474 176.218C284.062 176.263 283.76 176.037 283.719 175.655C283.152 171.717 279.597 168.361 273.493 165.799C260.147 160.41 243.558 162.212 227.033 170.975C226.635 171.147 226.21 171.064 226.032 170.696C225.853 170.329 225.949 169.931 226.346 169.759C243.406 160.81 260.268 158.978 274.191 164.562C280.72 167.207 284.591 170.915 285.213 175.363C285.131 175.888 284.885 176.173 284.474 176.218Z" fill="white"/>
<path d="M227.475 210.795C221.25 210.955 215.751 210.133 211.54 208.397C206.753 206.466 203.665 203.576 202.426 199.84C202.234 199.344 202.316 198.82 202.672 198.265C203.274 197.425 204.603 196.894 206.111 196.73C207.77 196.679 209.21 197.167 209.595 198.158C210.695 200.619 213.001 202.691 216.334 204.006C228.227 208.778 249.693 204.64 264.147 194.683C273.436 188.255 278.201 182.319 277.66 177.345C277.286 173.902 274.322 170.87 268.958 168.743C255.173 163.144 237.791 166.581 221.145 178.066C215.076 182.209 211.009 186.908 209.547 191.325C209.232 192.262 208.054 192.906 206.56 193.198C205.052 193.361 203.763 192.985 203.131 192.28C202.801 191.799 202.609 191.304 202.828 190.764C204.892 185.508 209.603 180.352 216.577 175.594C216.974 175.422 217.385 175.378 217.564 175.745C217.743 176.113 217.784 176.495 217.387 176.668C210.674 181.268 206.086 186.282 204.131 191.268C204.145 191.396 204.145 191.396 204.159 191.523C204.474 191.876 205.187 192.056 206.284 191.937C207.381 191.818 207.888 191.376 207.997 191.106C209.569 186.42 213.882 181.435 220.212 177.135C237.378 165.335 255.322 161.967 269.533 167.648C275.335 169.986 278.616 173.371 279.045 177.324C279.641 182.807 274.918 189.126 264.971 195.884C250.12 206.013 227.982 210.353 215.65 205.37C211.878 203.845 209.27 201.548 208.143 198.832C207.964 198.464 207.1 198.171 206.003 198.29C204.907 198.409 203.975 198.768 203.742 199.181C203.619 199.323 203.633 199.451 203.646 199.578C204.692 202.819 207.615 205.469 211.964 207.19C216.024 208.813 221.249 209.665 227.199 209.535C227.61 209.49 227.926 209.843 227.968 210.225C228.132 210.466 227.886 210.75 227.475 210.795Z" fill="white"/>
<path d="M244.96 201.928C243.863 202.047 242.588 201.799 241.97 201.221C241.503 200.755 241.311 200.26 241.393 199.735C241.584 198.94 242.351 198.341 243.42 197.967C248.258 196.538 252.739 194.374 256.616 191.759C262.946 187.459 266.26 183.487 266.462 180.239C266.57 178.679 265.718 177.223 264.195 175.969C263.591 175.519 263.398 175.024 263.48 174.499C263.534 173.719 264.164 173.134 265.219 172.633C266.932 171.801 269.167 171.946 270.238 172.862C272.365 174.566 273.56 176.629 273.672 178.94C273.758 182.285 271.527 186.011 267.103 189.975C266.857 190.26 266.295 190.192 266.13 189.952C265.828 189.727 265.91 189.202 266.17 189.044C270.348 185.365 272.346 182.051 272.301 179.089C272.231 177.161 271.351 175.45 269.389 173.986C268.785 173.535 267.099 173.332 265.92 173.976C265.262 174.305 265.016 174.59 265.03 174.718C265.03 174.718 265.044 174.845 265.208 175.085C267.171 176.549 268.064 178.388 267.997 180.33C267.851 184.088 264.291 188.345 257.578 192.945C253.577 195.702 248.959 197.881 243.983 199.325C243.312 199.527 242.928 199.827 242.956 200.082C242.956 200.082 242.97 200.209 243.121 200.322C243.574 200.66 244.698 200.796 245.781 200.549C251.277 198.791 256.416 196.297 260.677 193.383C261.074 193.211 261.485 193.166 261.664 193.533C261.843 193.901 261.884 194.284 261.487 194.456C257.103 197.513 251.69 200.036 246.194 201.794C245.645 201.854 245.234 201.898 244.96 201.928Z" fill="white"/>
<path d="M233.692 204.185L233.555 204.199C228.195 204.653 223.56 204.124 220.076 202.696C216.015 201.073 213.791 198.476 213.431 195.16C212.877 190.06 217.066 183.928 224.546 178.728C236.561 170.585 248.925 166.919 259.662 168.72C260.787 168.856 261.678 169.405 261.899 170.155C262.091 170.65 262.023 171.303 261.667 171.857C260.819 172.982 258.804 173.588 256.966 173.271C249.342 172.035 240.172 174.45 231.225 180.196C230.827 180.368 230.718 180.638 230.732 180.766C230.746 180.893 230.897 181.006 231.185 181.104C232.049 181.397 233.42 181.248 234.201 180.776C243.148 175.03 251.975 173.297 258.217 175.845C260.686 176.867 262.237 178.376 262.445 180.288C262.777 183.349 259.861 187.149 253.792 191.292C245.393 196.978 233.907 199.774 228.104 197.437C226.225 196.738 225.127 195.567 224.673 193.939C224.177 191.929 224.887 189.529 226.968 186.981C227.092 186.838 227.078 186.711 227.078 186.711C227.064 186.583 226.762 186.358 226.337 186.275C225.199 186.012 223.718 186.431 223.362 186.985C221.172 189.804 220.215 192.488 220.876 194.739C221.344 196.494 222.744 197.891 225.062 198.8C227.38 199.709 230.479 200.147 233.92 199.902C235.716 199.836 237.17 200.452 237.432 201.585C237.488 202.095 237.392 202.492 237.022 202.92C235.844 203.564 234.789 204.065 233.692 204.185ZM250.066 169.763C242.114 170.627 233.604 174.003 225.205 179.689C218.108 184.589 214.139 190.181 214.637 194.771C214.942 197.577 216.987 199.806 220.471 201.234C223.805 202.549 228.165 203.108 233.252 202.684C234.211 202.58 234.869 202.25 235.116 201.966C235.239 201.823 235.239 201.823 235.225 201.696C235.183 201.313 234.456 201.005 233.209 201.011C229.479 201.159 226.243 200.736 223.637 199.729C221.017 198.594 219.315 196.973 218.668 194.85C217.966 192.216 218.881 189.149 221.456 186.031C222.304 184.907 224.47 184.414 226.047 184.887C226.911 185.181 227.515 185.631 227.708 186.126C227.9 186.621 227.819 187.146 227.449 187.574C225.737 189.695 224.999 191.839 225.44 193.34C225.702 194.473 226.621 195.276 228.075 195.892C233.452 198.146 244.39 195.41 252.392 189.896C257.94 186.068 260.761 182.665 260.484 180.114C260.331 178.712 259.233 177.541 257.203 176.729C251.401 174.392 243.135 176.193 234.572 181.639C233.407 182.411 231.488 182.619 230.185 182.115C229.458 181.807 228.977 181.214 228.908 180.577C228.839 179.939 229.181 179.257 229.962 178.785C239.306 172.867 248.873 170.28 256.786 171.613C258.199 171.847 259.528 171.316 260.021 170.746C260.13 170.476 260.13 170.476 260.116 170.348C259.952 170.108 259.65 169.883 258.937 169.702C256.276 169.475 253.219 169.42 250.066 169.763Z" fill="white"/>
<path d="M236.15 194.886C234.367 195.079 232.969 194.973 231.803 194.455C230.637 193.936 229.854 193.118 229.73 191.97C229.466 189.548 231.89 186.317 236.288 183.388C243.384 178.488 249.854 176.753 254.051 178.361C255.793 179.075 256.329 180.178 256.412 180.943C256.62 182.856 254.95 185.36 251.361 188.072C250.21 188.971 248.154 189.195 246.851 188.691C246.124 188.383 245.657 187.918 245.588 187.28C245.519 186.643 245.737 186.103 246.381 185.646C249.327 183.39 249.244 182.625 249.244 182.625C248.366 182.205 245.665 182.885 241.158 186.084C238.062 188.227 236.857 189.906 236.899 190.289C236.94 190.671 236.694 190.956 236.282 191.001C235.871 191.045 235.569 190.82 235.528 190.437C235.334 188.652 239.183 185.783 240.471 184.869C243.567 182.726 247.747 180.337 249.928 181.261C250.504 181.456 250.819 181.809 250.875 182.319C250.944 182.957 250.657 184.149 247.452 186.562C247.191 186.719 247.205 186.846 247.219 186.974C247.233 187.102 247.384 187.214 247.672 187.312C248.55 187.733 250.044 187.441 250.688 186.984C254.907 183.687 255.399 181.828 255.316 181.063C255.247 180.425 254.629 179.847 253.751 179.426C252.009 178.712 246.907 177.718 237.495 184.289C233.618 186.903 231.304 189.864 231.498 191.649C231.567 192.287 231.897 192.767 232.761 193.06C234.64 193.759 238.067 193.387 241.932 191.935C242.33 191.763 242.769 191.973 242.81 192.356C242.989 192.723 242.756 193.136 242.345 193.181C239.823 194.229 237.795 194.707 236.15 194.886Z" fill="white"/>
<path d="M221.729 173.228C221.592 173.243 221.592 173.243 221.455 173.258L201.428 165.112C201.14 165.014 201.112 164.759 201.222 164.489C201.331 164.219 201.605 164.189 201.893 164.287L221.92 172.433C222.208 172.531 222.236 172.786 222.127 173.056C221.989 173.071 221.866 173.213 221.729 173.228Z" fill="white"/>
<defs>
<linearGradient id="paint0_linear_2_1038" x1="31.2938" y1="118.202" x2="313.042" y2="239.717" gradientUnits="userSpaceOnUse">
<stop stop-color="#3A9BD5"/>
<stop offset="0.3053" stop-color="#3A9BD5"/>
<stop offset="0.3555" stop-color="#3A9BD5"/>
<stop offset="0.5988" stop-color="#3999D4"/>
<stop offset="0.6883" stop-color="#3592CF"/>
<stop offset="0.7522" stop-color="#2F86C7"/>
<stop offset="0.8039" stop-color="#2676BC"/>
<stop offset="0.8102" stop-color="#2573BA"/>
</linearGradient>
<linearGradient id="paint1_linear_2_1038" x1="48.114" y1="203.055" x2="274.605" y2="69.1911" gradientUnits="userSpaceOnUse">
<stop stop-color="#59BDEF"/>
<stop offset="1" stop-color="#7BDAFF"/>
</linearGradient>
</defs>
</svg>
