<svg width="333" height="429" viewBox="0 0 333 429" fill="none" xmlns="http://www.w3.org/2000/svg">
<g clip-path="url(#clip0_2_680)">
<path opacity="0.5" d="M329.433 348.798L231.702 413.913C227.279 416.873 220.716 417.202 217.006 414.571L2.56798 272.009C-1.2842 269.543 -0.713507 265.103 3.5667 262.143L101.298 197.029C105.721 194.069 112.284 193.74 115.993 196.371L330.289 338.933C334.284 341.563 333.856 346.003 329.433 348.798Z" fill="black"/>
<path d="M333 300.949L312.883 296.838L116.136 165.951C112.284 163.485 105.721 163.814 101.441 166.609L10.2725 227.449L0 225.311V237.314C0 238.959 0.856041 240.439 2.56812 241.59L216.864 384.316C220.716 386.782 227.279 386.453 231.559 383.658L329.291 318.543C331.716 316.899 333 314.926 332.857 312.953V300.949H333Z" fill="url(#paint0_linear_2_680)"/>
<path d="M329.433 306.54L231.702 371.654C227.279 374.614 220.716 374.943 217.006 372.312L2.56798 229.751C-1.2842 227.284 -0.713507 222.845 3.5667 219.885L101.298 154.77C105.721 151.81 112.284 151.482 115.993 154.112L330.289 296.674C334.284 299.305 333.856 303.58 329.433 306.54Z" fill="url(#paint1_linear_2_680)"/>
<path d="M329.433 305.06L231.702 370.175C227.279 373.134 220.716 373.463 217.006 370.832L2.5681 228.106C1.14137 227.12 0.285325 225.969 0.142652 224.653C-0.142695 226.462 0.713346 228.271 2.5681 229.586L216.864 372.312C220.716 374.779 227.279 374.45 231.559 371.654L329.29 306.54C332.001 304.731 333.285 302.429 332.857 300.127C332.715 301.936 331.573 303.58 329.433 305.06Z" fill="white"/>
<path d="M329.576 296.181L216.008 371.654L3.42419 230.244L117.135 154.77L329.576 296.181Z" fill="#0F65B2"/>
<path d="M67.1993 184.368L52.0759 194.398C51.3625 194.891 50.3638 194.891 49.7931 194.563L49.6504 194.398C49.0797 194.069 49.2224 193.412 49.7931 192.918L64.9165 182.888C65.6299 182.395 66.6286 182.395 67.1993 182.724L67.342 182.888C67.9127 183.217 67.77 183.875 67.1993 184.368Z" fill="#0063AD"/>
<path d="M261.663 205.086H69.4821V323.805H261.663V205.086Z" fill="white"/>
<path d="M235.183 302.151C240.59 289.026 213.758 261.304 175.251 240.232C136.744 219.16 101.145 212.718 95.7379 225.843C90.3305 238.968 117.163 266.69 155.669 287.762C194.176 308.833 229.775 315.276 235.183 302.151Z" fill="white"/>
<path d="M234.925 302.01C240.299 288.967 213.554 261.374 175.19 240.381C136.826 219.387 101.369 212.941 95.9956 225.984C90.6221 239.027 117.366 266.62 155.731 287.613C194.095 308.607 229.552 315.053 234.925 302.01Z" fill="white"/>
<path d="M234.667 301.869C240.041 288.826 213.412 261.297 175.19 240.381C136.968 219.465 101.627 213.082 96.2533 226.125C90.8798 239.168 117.509 266.697 155.731 287.613C193.953 308.529 229.294 314.912 234.667 301.869Z" fill="white"/>
<path d="M234.409 301.727C239.749 288.766 213.208 261.367 175.129 240.529C137.049 219.691 101.851 213.305 96.5111 226.266C91.1714 239.227 117.712 266.627 155.792 287.465C193.871 308.303 229.07 314.688 234.409 301.727Z" fill="white"/>
<path d="M234.152 301.587C239.458 288.708 213.005 261.438 175.068 240.678C137.13 219.918 102.075 213.529 96.7689 226.408C91.463 239.286 117.916 266.556 155.853 287.316C193.79 308.076 228.846 314.465 234.152 301.587Z" fill="#FEFFFF"/>
<path d="M233.765 301.375C239.071 288.496 212.791 261.321 175.067 240.677C137.344 220.034 102.461 213.74 97.1554 226.619C91.8495 239.498 118.129 266.673 155.853 287.316C193.577 307.959 228.459 314.253 233.765 301.375Z" fill="#FEFEFF"/>
<path d="M233.507 301.234C238.78 288.437 212.588 261.391 175.006 240.826C137.425 220.261 102.685 213.963 97.4132 226.76C92.1411 239.557 118.333 266.602 155.914 287.167C193.496 307.733 228.235 314.03 233.507 301.234Z" fill="#FEFEFF"/>
<path d="M233.25 301.093C238.522 288.296 212.445 261.314 175.006 240.826C137.567 220.339 102.943 214.104 97.671 226.901C92.3989 239.698 118.475 266.68 155.914 287.168C193.353 307.655 227.977 313.89 233.25 301.093Z" fill="#FEFEFE"/>
<path d="M232.992 300.952C238.23 288.237 212.242 261.384 174.945 240.975C137.649 220.565 103.167 214.327 97.9288 227.042C92.6904 239.757 118.679 266.609 155.975 287.019C193.272 307.429 227.754 313.666 232.992 300.952Z" fill="#FDFEFE"/>
<path d="M232.734 300.811C237.939 288.178 212.038 261.455 174.884 241.123C137.73 220.792 103.391 214.55 98.1866 227.183C92.982 239.816 118.882 266.539 156.037 286.871C193.191 307.202 227.53 313.443 232.734 300.811Z" fill="#FDFDFE"/>
<path d="M232.476 300.67C237.681 288.037 211.896 261.377 174.884 241.123C137.872 220.869 103.649 214.691 98.4443 227.324C93.2397 239.957 119.025 266.617 156.037 286.871C193.049 307.124 227.272 313.302 232.476 300.67Z" fill="#FDFDFE"/>
<path d="M232.219 300.529C237.389 287.978 211.692 261.448 174.823 241.272C137.953 221.096 103.873 214.915 98.702 227.465C93.5313 240.016 119.228 266.546 156.098 286.722C192.967 306.898 227.048 313.079 232.219 300.529Z" fill="#FCFDFE"/>
<path d="M231.987 300.292C226.851 312.788 192.895 306.704 156.227 286.644C119.56 266.583 94.0218 240.11 99.1581 227.613C104.294 215.116 138.251 221.2 174.918 241.261C211.585 261.486 237.123 287.795 231.987 300.292Z" fill="#FCFDFE"/>
<path d="M231.574 300.176C236.711 287.707 211.275 261.401 174.762 241.42C138.248 221.439 104.483 215.349 99.3465 227.818C94.2095 240.287 119.645 266.592 156.159 286.574C192.673 306.555 226.437 312.645 231.574 300.176Z" fill="#FBFCFE"/>
<path d="M231.316 300.035C236.42 287.648 211.072 261.472 174.7 241.569C138.329 221.666 104.707 215.572 99.6041 227.959C94.501 240.346 119.849 266.522 156.22 286.425C192.592 306.328 226.213 312.422 231.316 300.035Z" fill="#FBFCFD"/>
<path d="M231.059 299.894C236.162 287.507 210.929 261.394 174.7 241.569C138.471 221.743 104.965 215.713 99.862 228.1C94.7588 240.487 119.991 266.6 156.22 286.425C192.449 306.25 225.956 312.28 231.059 299.894Z" fill="#FBFCFD"/>
<path d="M230.801 299.753C235.87 287.448 210.726 261.465 174.639 241.717C138.553 221.97 105.189 215.936 100.12 228.241C95.0503 240.545 120.195 266.529 156.281 286.276C192.368 306.024 225.732 312.057 230.801 299.753Z" fill="#FAFBFD"/>
<path d="M230.543 299.612C235.579 287.389 210.522 261.535 174.578 241.866C138.634 222.196 105.413 216.159 100.377 228.382C95.3418 240.605 120.398 266.458 156.343 286.128C192.287 305.797 225.508 311.834 230.543 299.612Z" fill="#FAFBFD"/>
<path d="M230.285 299.471C235.321 287.248 210.38 261.457 174.578 241.866C138.776 222.274 105.671 216.3 100.635 228.523C95.5996 240.746 120.541 266.536 156.343 286.128C192.144 305.719 225.25 311.693 230.285 299.471Z" fill="#F9FBFD"/>
<path d="M230.028 299.33C235.029 287.189 210.176 261.528 174.517 242.014C138.857 222.501 105.895 216.523 100.893 228.664C95.8911 240.805 120.744 266.466 156.404 285.979C192.063 305.493 225.026 311.47 230.028 299.33Z" fill="#F9FAFC"/>
<path d="M229.77 299.188C234.738 287.13 209.973 261.599 174.456 242.163C138.938 222.727 106.119 216.747 101.151 228.805C96.1827 240.864 120.948 266.395 156.465 285.831C191.982 305.267 224.802 311.247 229.77 299.188Z" fill="#F8FAFC"/>
<path d="M229.512 299.047C234.48 286.989 209.83 261.521 174.456 242.163C139.081 222.805 106.376 216.888 101.408 228.946C96.4404 241.005 121.09 266.473 156.465 285.831C191.84 305.189 224.544 311.106 229.512 299.047Z" fill="#F8FAFC"/>
<path d="M229.126 298.836C234.06 286.859 209.556 261.552 174.394 242.311C139.233 223.07 106.729 217.181 101.795 229.157C96.8608 241.134 121.365 266.441 156.526 285.682C191.687 304.923 224.191 310.812 229.126 298.836Z" fill="#F7F9FC"/>
<path d="M228.868 298.695C233.802 286.718 209.413 261.475 174.394 242.312C139.375 223.148 106.987 217.322 102.053 229.299C97.1186 241.276 121.507 266.519 156.526 285.682C191.545 304.846 223.934 310.672 228.868 298.695Z" fill="#F7F9FC"/>
<path d="M228.61 298.554C233.51 286.659 209.21 261.545 174.333 242.46C139.457 223.374 107.211 217.545 102.311 229.44C97.4102 241.334 121.711 266.448 156.587 285.534C191.464 304.619 223.71 310.448 228.61 298.554Z" fill="#F6F9FB"/>
<path d="M228.352 298.413C233.219 286.601 209.006 261.616 174.272 242.609C139.538 223.602 107.435 217.769 102.568 229.581C97.7017 241.394 121.914 266.378 156.649 285.386C191.383 304.393 223.486 310.226 228.352 298.413Z" fill="#F6F8FB"/>
<path d="M228.095 298.272C232.961 286.46 208.864 261.538 174.272 242.609C139.68 223.679 107.693 217.91 102.826 229.722C97.9595 241.535 122.057 266.456 156.649 285.386C191.241 304.315 223.228 310.085 228.095 298.272Z" fill="#F5F8FB"/>
<path d="M227.837 298.131C232.67 286.4 208.66 261.609 174.211 242.757C139.761 223.905 107.917 218.133 103.084 229.863C98.251 241.594 122.26 266.385 156.71 285.237C191.159 304.088 223.004 309.861 227.837 298.131Z" fill="#F5F7FB"/>
<path d="M227.579 297.99C232.378 286.342 208.457 261.68 174.15 242.906C139.842 224.132 108.141 218.356 103.342 230.004C98.5426 241.653 122.464 266.315 156.771 285.088C191.078 303.862 222.78 309.638 227.579 297.99Z" fill="#F4F7FB"/>
<path d="M227.321 297.849C232.12 286.2 208.314 261.602 174.15 242.906C139.985 224.21 108.398 218.497 103.599 230.145C98.8003 241.794 122.606 266.393 156.771 285.088C190.936 303.784 222.522 309.497 227.321 297.849Z" fill="#F4F7FA"/>
<path d="M226.935 297.637C231.7 286.07 208.04 261.633 174.088 243.054C140.137 224.475 108.751 218.79 103.986 230.357C99.2207 241.923 122.881 266.361 156.832 284.94C190.783 303.518 222.169 309.203 226.935 297.637Z" fill="#F3F6FA"/>
<path d="M226.677 297.496C231.442 285.929 207.897 261.555 174.088 243.054C140.279 224.553 109.009 218.931 104.244 230.498C99.4785 242.064 123.023 266.438 156.832 284.94C190.641 303.441 221.912 309.062 226.677 297.496Z" fill="#F2F6FA"/>
<path d="M226.419 297.355C231.151 285.871 207.694 261.626 174.027 243.203C140.361 224.78 109.233 219.155 104.502 230.639C99.7701 242.123 123.227 266.368 156.893 284.791C190.56 303.214 221.688 308.839 226.419 297.355Z" fill="#F2F5FA"/>
<path d="M226.161 297.214C230.859 285.812 207.49 261.697 173.966 243.351C140.442 225.006 109.457 219.378 104.759 230.78C100.062 242.182 123.43 266.297 156.954 284.643C190.479 302.988 221.464 308.616 226.161 297.214Z" fill="#F1F5F9"/>
<path d="M225.904 297.073C230.601 285.67 207.348 261.618 173.966 243.351C140.584 225.084 109.715 219.518 105.017 230.921C100.319 242.323 123.573 266.375 156.955 284.642C190.336 302.91 221.206 308.475 225.904 297.073Z" fill="#F1F4F9"/>
<path d="M225.646 296.931C230.31 285.611 207.144 261.689 173.905 243.499C140.665 225.31 109.939 219.741 105.275 231.062C100.611 242.382 123.776 266.304 157.016 284.494C190.255 302.683 220.982 308.252 225.646 296.931Z" fill="#F0F4F9"/>
<path d="M225.388 296.791C230.018 285.552 206.941 261.76 173.844 243.648C140.746 225.537 110.162 219.965 105.532 231.203C100.902 242.441 123.98 266.234 157.077 284.346C190.174 302.457 220.758 308.029 225.388 296.791Z" fill="#EFF4F9"/>
<path d="M225.13 296.65C229.76 285.411 206.799 261.682 173.844 243.648C140.889 225.615 110.42 220.106 105.79 231.344C101.16 242.582 124.122 266.312 157.077 284.346C190.032 302.379 220.5 307.888 225.13 296.65Z" fill="#EFF3F8"/>
<path d="M224.744 296.438C229.34 285.282 206.524 261.713 173.783 243.797C141.041 225.88 110.773 220.399 106.177 231.556C101.581 242.712 124.397 266.28 157.138 284.197C189.879 302.114 220.148 307.594 224.744 296.438Z" fill="#EEF3F8"/>
<path d="M224.486 296.297C229.048 285.223 206.32 261.785 173.721 243.946C141.122 226.107 110.997 220.623 106.435 231.697C101.872 242.771 124.6 266.21 157.199 284.049C189.798 301.888 219.924 307.372 224.486 296.297Z" fill="#EEF2F8"/>
<path d="M224.283 296.181C219.717 307.198 189.756 301.772 157.226 284.013C124.697 266.254 102.154 242.905 106.72 231.888C111.285 220.872 141.247 226.298 173.776 244.056C206.306 261.815 228.848 285.164 224.283 296.181Z" fill="#EDF2F8"/>
<path d="M223.97 296.015C228.499 285.023 205.974 261.777 173.66 244.094C141.346 226.411 111.479 220.987 106.95 231.979C102.421 242.971 124.946 266.217 157.26 283.9C189.575 301.583 219.442 307.007 223.97 296.015Z" fill="#ECF1F7"/>
<path d="M223.713 295.874C228.241 284.882 205.832 261.699 173.66 244.094C141.488 226.489 111.737 221.128 107.208 232.12C102.679 243.112 125.089 266.295 157.26 283.9C189.432 301.505 219.184 306.866 223.713 295.874Z" fill="#ECF1F7"/>
<path d="M223.455 295.733C227.95 284.823 205.628 261.77 173.599 244.242C141.569 226.715 111.96 221.351 107.466 232.261C102.971 243.171 125.292 266.224 157.322 283.752C189.351 301.279 218.96 306.643 223.455 295.733Z" fill="#EBF0F7"/>
<path d="M223.197 295.592C227.658 284.764 205.425 261.84 173.538 244.391C141.651 226.942 112.184 221.574 107.723 232.402C103.262 243.23 125.496 266.154 157.383 283.603C189.27 301.052 218.736 306.42 223.197 295.592Z" fill="#EAF0F6"/>
<path d="M222.939 295.451C227.401 284.622 205.283 261.762 173.538 244.391C141.793 227.019 112.442 221.715 107.981 232.543C103.52 243.371 125.638 266.231 157.383 283.603C189.128 300.974 218.478 306.279 222.939 295.451Z" fill="#EAEFF6"/>
<path d="M222.553 295.239C226.98 284.493 205.008 261.794 173.477 244.539C141.945 227.284 112.795 222.008 108.368 232.754C103.941 243.5 125.913 266.199 157.444 283.454C188.975 300.709 218.126 305.985 222.553 295.239Z" fill="#E9EFF6"/>
<path d="M222.295 295.098C226.688 284.434 204.804 261.865 173.415 244.688C142.026 227.511 113.019 222.232 108.625 232.896C104.232 243.56 126.116 266.129 157.505 283.306C188.894 300.483 217.902 305.762 222.295 295.098Z" fill="#E8EEF6"/>
<path d="M222.037 294.957C226.431 284.293 204.662 261.787 173.415 244.688C142.169 227.589 113.277 222.372 108.883 233.036C104.49 243.701 126.259 266.207 157.505 283.306C188.752 300.404 217.644 305.621 222.037 294.957Z" fill="#E7EEF5"/>
<path d="M221.857 294.865C217.434 305.389 188.757 300.292 157.654 283.191C126.551 266.09 104.865 243.727 109.288 233.204C113.711 222.68 142.388 227.778 173.491 244.878C204.594 261.815 226.28 284.177 221.857 294.865Z" fill="#E7EDF5"/>
<path d="M221.522 294.675C225.882 284.093 204.316 261.78 173.354 244.837C142.392 227.894 113.759 222.737 109.399 233.319C105.039 243.901 126.605 266.215 157.567 283.158C188.528 300.101 217.162 305.257 221.522 294.675Z" fill="#E6EDF5"/>
<path d="M221.264 294.534C225.59 284.034 204.113 261.85 173.293 244.985C142.473 228.12 113.982 222.96 109.657 233.46C105.331 243.96 126.808 266.144 157.628 283.009C188.447 299.874 216.938 305.034 221.264 294.534Z" fill="#E5ECF4"/>
<path d="M221.006 294.393C225.298 283.975 203.909 261.921 173.232 245.134C142.555 228.346 114.206 223.183 109.914 233.601C105.622 244.019 127.012 266.073 157.689 282.86C188.366 299.647 216.714 304.811 221.006 294.393Z" fill="#E5ECF4"/>
<path d="M220.749 294.252C225.041 283.834 203.767 261.843 173.232 245.134C142.697 228.425 114.464 223.325 110.172 233.742C105.88 244.16 127.154 266.151 157.689 282.861C188.224 299.57 216.457 304.67 220.749 294.252Z" fill="#E4EBF4"/>
<path d="M220.362 294.04C224.62 283.704 203.492 261.875 173.171 245.282C142.849 228.69 114.817 223.618 110.559 233.954C106.3 244.289 127.429 266.119 157.75 282.712C188.071 299.304 216.104 304.376 220.362 294.04Z" fill="#E3EBF4"/>
<path d="M220.104 293.9C224.329 283.646 203.288 261.946 173.109 245.431C142.93 228.916 115.041 223.841 110.816 234.095C106.592 244.349 127.632 266.049 157.811 282.564C187.99 299.078 215.88 304.153 220.104 293.9Z" fill="#E2EAF3"/>
<path d="M219.846 293.758C224.071 283.504 203.146 261.868 173.109 245.431C143.073 228.994 115.299 223.982 111.074 234.236C106.85 244.49 127.775 266.127 157.811 282.563C187.848 299 215.622 304.012 219.846 293.758Z" fill="#E2EAF3"/>
<path d="M219.589 293.617C223.779 283.445 202.942 261.938 173.048 245.579C143.154 229.22 115.523 224.205 111.332 234.376C107.141 244.548 127.978 266.056 157.872 282.414C187.767 298.773 215.398 303.789 219.589 293.617Z" fill="#E1E9F3"/>
<path d="M219.331 293.476C223.522 283.304 202.8 261.86 173.048 245.579C143.296 229.298 115.78 224.346 111.59 234.518C107.399 244.69 128.12 266.134 157.872 282.415C187.624 298.696 215.14 303.648 219.331 293.476Z" fill="#E0E8F2"/>
<path d="M219.073 293.335C223.23 283.245 202.597 261.931 172.987 245.728C143.377 229.525 116.004 224.569 111.847 234.659C107.691 244.749 128.324 266.063 157.934 282.266C187.543 298.469 214.916 303.425 219.073 293.335Z" fill="#DFE8F2"/>
<path d="M218.861 293.221C214.724 303.251 187.473 298.318 158.082 282.204C128.692 266.09 108.147 244.878 112.284 234.848C116.422 224.818 143.672 229.751 173.063 245.865C202.454 261.979 222.999 283.191 218.861 293.221Z" fill="#DFE7F2"/>
<path d="M218.558 293.053C222.681 283.045 202.251 261.923 172.926 245.876C143.601 229.829 116.486 224.933 112.363 234.94C108.24 244.948 128.67 266.07 157.995 282.117C187.32 298.164 214.435 303.06 218.558 293.053Z" fill="#DEE7F1"/>
<path d="M218.29 292.892C214.153 302.758 187.188 297.989 158.082 282.04C128.977 266.09 108.575 245.043 112.712 235.177C116.85 225.311 143.815 230.08 172.92 246.029C202.026 261.979 222.428 283.026 218.29 292.892Z" fill="#DDE6F1"/>
<path d="M217.913 292.7C221.969 282.856 201.772 262.025 172.803 246.173C143.834 230.32 117.063 225.449 113.007 235.293C108.952 245.137 129.148 265.968 158.117 281.82C187.086 297.673 213.858 302.544 217.913 292.7Z" fill="#DCE6F1"/>
<path d="M217.656 292.559C221.711 282.716 201.63 261.948 172.804 246.173C143.977 230.399 117.321 225.591 113.265 235.435C109.21 245.278 129.291 266.046 158.117 281.821C186.944 297.595 213.6 302.403 217.656 292.559Z" fill="#DCE5F0"/>
<path d="M217.398 292.418C221.419 282.657 201.427 262.019 172.742 246.322C144.058 230.625 117.545 225.814 113.523 235.576C109.501 245.338 129.494 265.976 158.178 281.672C186.863 297.369 213.376 302.18 217.398 292.418Z" fill="#DBE4F0"/>
<path d="M217.149 292.234C213.154 301.936 186.76 297.167 158.225 281.546C129.69 265.925 109.859 245.372 113.854 235.67C117.848 225.969 144.243 230.737 172.778 246.358C201.312 261.979 221.144 282.533 217.149 292.234Z" fill="#DAE4F0"/>
<path d="M216.882 292.136C220.87 282.457 201.081 262.011 172.681 246.471C144.281 230.93 118.026 226.178 114.038 235.858C110.05 245.538 129.84 265.983 158.24 281.524C186.639 297.065 212.894 301.816 216.882 292.136Z" fill="#D9E3EF"/>
<path d="M216.721 291.906C212.726 301.607 186.617 296.838 158.368 281.382C130.118 265.925 110.429 245.536 114.424 235.999C118.419 226.298 144.528 231.066 172.778 246.523C200.884 261.979 220.573 282.369 216.721 291.906Z" fill="#D8E3EF"/>
<path d="M216.367 291.854C220.321 282.257 200.735 262.004 172.62 246.619C144.505 231.234 118.508 226.542 114.554 236.14C110.6 245.738 130.186 265.99 158.301 281.375C186.416 296.76 212.413 301.452 216.367 291.854Z" fill="#D7E2EF"/>
<path d="M216.109 291.712C220.029 282.197 200.531 262.074 172.559 246.767C144.586 231.46 118.732 226.765 114.812 236.28C110.891 245.796 130.389 265.919 158.362 281.226C186.334 296.533 212.189 301.228 216.109 291.712Z" fill="#D7E1EE"/>
<path d="M215.722 291.501C219.609 282.068 200.256 262.106 172.497 246.916C144.738 231.726 119.085 227.059 115.198 236.492C111.312 245.926 130.664 265.888 158.423 281.078C186.182 296.268 211.836 300.935 215.722 291.501Z" fill="#D6E1EE"/>
<path d="M215.465 291.36C219.351 281.927 200.114 262.028 172.497 246.916C144.881 231.804 119.342 227.2 115.456 236.633C111.569 246.067 130.807 265.965 158.423 281.078C186.04 296.19 211.578 300.794 215.465 291.36Z" fill="#D5E0EE"/>
<path d="M215.294 291.248C211.442 300.62 186.046 296.016 158.51 280.889C130.974 265.925 111.856 246.029 115.708 236.657C119.56 227.284 144.956 231.888 172.492 247.016C200.028 262.143 219.147 281.875 215.294 291.248Z" fill="#D4E0ED"/>
<path d="M214.949 291.078C218.802 281.727 199.768 262.021 172.436 247.064C145.104 232.108 119.824 227.564 115.972 236.916C112.119 246.267 131.152 265.973 158.484 280.929C185.816 295.886 211.096 300.43 214.949 291.078Z" fill="#D3DFED"/>
<path d="M214.691 290.937C218.51 281.667 199.565 262.091 172.375 247.213C145.186 232.334 120.048 227.787 116.229 237.056C112.41 246.326 131.356 265.902 158.546 280.781C185.735 295.659 210.872 300.206 214.691 290.937Z" fill="#D2DEED"/>
<path d="M214.438 290.755C210.586 299.963 185.618 295.359 158.653 280.724C131.688 266.09 112.712 246.358 116.564 237.15C120.416 227.942 145.384 232.546 172.35 247.18C199.458 262.144 218.291 281.546 214.438 290.755Z" fill="#D2DEEC"/>
<path d="M214.176 290.655C217.961 281.468 199.219 262.084 172.314 247.361C145.409 232.638 120.53 228.151 116.745 237.339C112.96 246.526 131.702 265.909 158.607 280.632C185.512 295.355 210.391 299.843 214.176 290.655Z" fill="#D1DDEC"/>
<path d="M213.868 290.426C210.158 299.469 185.333 295.03 158.653 280.395C131.973 265.761 113.283 246.522 116.992 237.479C120.702 228.435 145.527 232.875 172.207 247.509C199.03 262.143 217.72 281.382 213.868 290.426Z" fill="#D0DCEC"/>
<path d="M213.582 290.261C209.873 299.305 185.333 294.865 158.653 280.395C131.973 265.925 113.568 246.687 117.278 237.643C120.987 228.6 145.527 233.039 172.207 247.509C198.887 262.144 217.434 281.218 213.582 290.261Z" fill="#CFDCEB"/>
<path d="M213.274 290.162C216.991 281.138 198.598 262.109 172.192 247.659C145.785 233.209 121.365 228.809 117.647 237.833C113.929 246.856 132.323 265.885 158.729 280.335C185.136 294.786 209.556 299.185 213.274 290.162Z" fill="#CEDBEB"/>
<path d="M213.016 290.021C216.7 281.079 198.395 262.18 172.13 247.807C145.866 233.435 121.589 229.032 117.905 237.974C114.221 246.915 132.526 265.815 158.79 280.187C185.055 294.559 209.332 298.962 213.016 290.021Z" fill="#CDDBEB"/>
<path d="M212.869 289.932C209.159 298.812 185.048 294.537 158.938 280.231C132.829 265.926 114.567 247.18 118.276 238.301C121.986 229.422 146.098 233.697 172.207 248.003C198.316 262.144 216.436 281.053 212.869 289.932Z" fill="#CCDAEA"/>
<path d="M212.5 289.738C216.15 280.879 198.049 262.172 172.069 247.956C146.09 233.739 122.07 229.396 118.42 238.256C114.77 247.115 132.872 265.822 158.851 280.038C184.831 294.255 208.85 298.598 212.5 289.738Z" fill="#CCD9EA"/>
<path d="M212.243 289.597C215.859 280.82 197.845 262.243 172.008 248.104C146.171 233.965 122.294 229.619 118.678 238.397C115.062 247.174 133.075 265.751 158.913 279.89C184.75 294.028 208.626 298.375 212.243 289.597Z" fill="#CBD9E9"/>
<path d="M211.985 289.456C215.601 280.679 197.703 262.165 172.008 248.104C146.313 234.044 122.552 229.76 118.936 238.538C115.32 247.315 133.218 265.829 158.913 279.89C184.608 293.951 208.369 298.234 211.985 289.456Z" fill="#CAD8E9"/>
<path d="M211.727 289.315C215.309 280.62 197.499 262.236 171.947 248.253C146.394 234.27 122.776 229.983 119.193 238.679C115.611 247.374 133.421 265.758 158.974 279.741C184.526 293.724 208.145 298.011 211.727 289.315Z" fill="#C9D7E9"/>
<path d="M211.442 289.11C207.875 297.825 184.477 293.55 159.081 279.573C133.685 265.761 115.994 247.345 119.56 238.794C123.127 230.08 146.526 234.355 171.922 248.331C197.317 262.308 215.009 280.56 211.442 289.11Z" fill="#C8D7E8"/>
<path d="M211.083 288.962C214.631 280.349 197.082 262.189 171.886 248.401C146.689 234.613 123.386 230.418 119.838 239.031C116.289 247.644 133.838 265.804 159.035 279.592C184.232 293.381 207.534 297.576 211.083 288.962Z" fill="#C7D6E8"/>
<path d="M210.825 288.821C214.34 280.29 196.879 262.26 171.824 248.55C146.77 234.839 123.61 230.641 120.096 239.172C116.581 247.703 134.042 265.734 159.096 279.444C184.151 293.154 207.31 297.353 210.825 288.821Z" fill="#C6D5E8"/>
<path d="M210.567 288.68C214.048 280.231 196.675 262.33 171.763 248.698C146.851 235.065 123.834 230.864 120.353 239.313C116.872 247.762 134.246 265.663 159.157 279.295C184.069 292.927 207.086 297.129 210.567 288.68Z" fill="#C5D5E7"/>
<path d="M210.301 288.617C206.877 297.003 183.906 292.892 159.224 279.409C134.398 265.926 117.135 248.003 120.702 239.617C124.126 231.231 147.096 235.341 171.779 248.825C196.604 262.308 213.868 280.067 210.301 288.617Z" fill="#C4D4E7"/>
<path d="M210.052 288.399C213.499 280.032 196.329 262.324 171.702 248.847C147.075 235.371 124.316 231.229 120.869 239.596C117.422 247.963 134.592 265.671 159.219 279.147C183.846 292.624 206.605 296.766 210.052 288.399Z" fill="#C3D3E6"/>
<path d="M209.873 288.288C206.449 296.674 183.764 292.563 159.366 279.08C134.969 265.761 117.848 248.002 121.273 239.781C124.697 231.395 147.382 235.506 171.779 248.989C196.176 262.308 213.297 279.902 209.873 288.288Z" fill="#C2D3E6"/>
<path d="M209.536 288.116C212.95 279.831 195.983 262.316 171.641 248.996C147.298 235.675 124.798 231.593 121.384 239.878C117.971 248.163 134.937 265.678 159.28 278.999C183.622 292.319 206.123 296.402 209.536 288.116Z" fill="#C1D2E6"/>
<path d="M209.302 287.959C205.878 296.181 183.621 292.07 159.366 278.915C135.112 265.761 118.419 248.331 121.701 240.11C125.125 231.888 147.382 235.999 171.636 249.154C195.891 262.308 212.726 279.738 209.302 287.959Z" fill="#C1D1E5"/>
<path d="M208.892 287.764C212.271 279.561 195.566 262.27 171.58 249.144C147.593 236.018 125.408 232.027 122.029 240.23C118.649 248.433 135.354 265.724 159.341 278.85C183.328 291.976 205.512 295.967 208.892 287.764Z" fill="#C0D1E5"/>
<path d="M208.634 287.623C211.98 279.502 195.363 262.341 171.518 249.292C147.674 236.244 125.632 232.25 122.287 240.371C118.941 248.492 135.558 265.653 159.402 278.701C183.247 291.75 205.288 295.744 208.634 287.623Z" fill="#BFD0E5"/>
<path d="M208.376 287.482C211.688 279.443 195.159 262.411 171.457 249.441C147.755 236.471 125.856 232.473 122.544 240.512C119.232 248.551 135.761 265.583 159.463 278.553C183.165 291.523 205.064 295.521 208.376 287.482Z" fill="#BECFE4"/>
<path d="M208.119 287.34C211.431 279.301 195.017 262.333 171.457 249.441C147.898 236.548 126.114 232.614 122.802 240.653C119.49 248.692 135.904 265.66 159.463 278.553C183.023 291.445 204.807 295.379 208.119 287.34Z" fill="#BDCEE4"/>
<path d="M207.861 287.199C211.139 279.242 194.813 262.404 171.396 249.589C147.979 236.775 126.338 232.837 123.06 240.794C119.782 248.751 136.107 265.59 159.525 278.404C182.942 291.219 204.583 295.156 207.861 287.199Z" fill="#BCCEE3"/>
<path d="M207.59 286.972C204.308 294.865 182.765 291.083 159.509 278.258C136.253 265.596 119.988 248.825 123.27 240.932C126.551 233.039 148.095 236.821 171.351 249.647C194.749 262.308 210.871 279.08 207.59 286.972Z" fill="#BBCDE3"/>
<path d="M207.345 286.917C210.59 279.042 194.467 262.396 171.335 249.738C148.202 237.079 126.82 233.201 123.575 241.076C120.331 248.951 136.453 265.597 159.586 278.255C182.718 290.914 204.101 294.792 207.345 286.917Z" fill="#BACCE3"/>
<path d="M207.088 286.776C210.298 278.983 194.264 262.467 171.274 249.886C148.283 237.306 127.044 233.424 123.833 241.217C120.622 249.01 136.657 265.526 159.647 278.107C182.637 290.688 203.877 294.569 207.088 286.776Z" fill="#B9CCE2"/>
<path d="M206.877 286.644C203.738 294.372 182.622 290.59 159.794 278.093C136.967 265.597 121.13 249.153 124.269 241.425C127.407 233.697 148.523 237.479 171.351 249.976C194.179 262.472 210.015 278.751 206.877 286.644Z" fill="#B8CBE2"/>
<path d="M206.443 286.424C209.62 278.713 193.847 262.421 171.212 250.035C148.578 237.649 127.654 233.86 124.477 241.57C121.301 249.281 137.074 265.573 159.708 277.959C182.342 290.345 203.266 294.135 206.443 286.424Z" fill="#B7CAE1"/>
<path d="M206.306 286.315C203.167 294.043 182.337 290.261 159.794 277.929C137.252 265.597 121.558 249.482 124.697 241.754C127.836 234.026 148.666 237.808 171.208 250.14C193.751 262.473 209.445 278.587 206.306 286.315Z" fill="#B6C9E1"/>
<path d="M205.928 286.142C209.071 278.513 193.501 262.414 171.151 250.184C148.802 237.954 128.136 234.224 124.993 241.853C121.85 249.482 137.42 265.581 159.769 277.811C182.119 290.041 202.785 293.771 205.928 286.142Z" fill="#B5C9E1"/>
<path d="M205.67 286.001C208.779 278.454 193.297 262.485 171.09 250.332C148.883 238.18 128.36 234.447 125.251 241.994C122.141 249.54 137.623 265.51 159.831 277.662C182.038 289.814 202.561 293.548 205.67 286.001Z" fill="#B4C8E0"/>
<path d="M205.412 285.86C208.521 278.313 193.155 262.407 171.09 250.332C149.025 238.258 128.618 234.588 125.508 242.135C122.399 249.681 137.766 265.588 159.83 277.662C181.895 289.736 202.303 293.407 205.412 285.86Z" fill="#B3C7E0"/>
<path d="M205.165 285.657C202.026 293.056 181.909 289.439 159.937 277.435C138.108 265.432 122.842 249.647 125.838 242.247C128.977 234.848 149.094 238.465 171.066 250.469C193.037 262.472 208.303 278.258 205.165 285.657Z" fill="#B2C7DF"/>
<path d="M204.897 285.578C207.938 278.195 192.748 262.548 170.968 250.629C149.188 238.711 129.066 235.034 126.024 242.417C122.982 249.8 138.173 265.446 159.953 277.365C181.733 289.284 201.855 292.96 204.897 285.578Z" fill="#B1C6DF"/>
<path d="M204.51 285.365C207.552 277.983 192.534 262.43 170.968 250.629C149.401 238.827 129.452 235.245 126.411 242.628C123.369 250.01 138.386 265.562 159.953 277.364C181.52 289.166 201.468 292.748 204.51 285.365Z" fill="#B0C5DE"/>
<path d="M204.252 285.225C207.26 277.924 192.331 262.502 170.906 250.778C149.482 239.054 129.676 235.468 126.668 242.769C123.66 250.07 138.59 265.492 160.014 277.216C181.438 288.94 201.244 292.526 204.252 285.225Z" fill="#AFC4DE"/>
<path d="M203.995 285.084C206.969 277.865 192.127 262.572 170.845 250.926C149.563 239.28 129.9 235.691 126.926 242.91C123.952 250.129 138.793 265.422 160.075 277.068C181.357 288.713 201.021 292.302 203.995 285.084Z" fill="#AEC4DE"/>
<path d="M203.738 285C200.742 292.235 181.195 288.617 160.08 277.107C138.964 265.597 124.269 250.305 127.122 243.07C130.118 235.835 149.665 239.452 170.78 250.962C192.039 262.473 206.734 277.765 203.738 285Z" fill="#ADC3DD"/>
<path d="M203.595 284.835C200.599 291.905 181.195 288.452 160.222 276.942C139.249 265.432 124.554 250.304 127.55 243.234C130.546 236.163 149.95 239.616 170.923 251.127C191.896 262.472 206.449 277.6 203.595 284.835Z" fill="#ACC2DD"/>
<path d="M203.221 284.66C206.161 277.524 191.639 262.487 170.784 251.075C149.929 239.662 130.64 236.196 127.699 243.333C124.759 250.47 139.282 265.507 160.137 276.919C180.991 288.331 200.281 291.797 203.221 284.66Z" fill="#ABC1DC"/>
<path d="M202.964 284.52C205.87 277.465 191.435 262.558 170.723 251.224C150.011 239.889 130.864 236.42 127.957 243.475C125.051 250.529 139.485 265.437 160.198 276.771C180.91 288.105 200.057 291.575 202.964 284.52Z" fill="#AAC1DC"/>
<path d="M202.706 284.379C205.578 277.406 191.232 262.628 170.662 251.372C150.092 240.115 131.088 236.643 128.215 243.615C125.342 250.588 139.689 265.366 160.259 276.622C180.829 287.878 199.833 291.351 202.706 284.379Z" fill="#A9C0DC"/>
<path d="M202.319 284.167C205.192 277.195 191.018 262.512 170.662 251.372C150.305 240.233 131.474 236.855 128.602 243.827C125.729 250.8 139.903 265.483 160.259 276.622C180.616 287.762 199.447 291.14 202.319 284.167Z" fill="#A8BFDB"/>
<path d="M202.168 284.013C199.315 290.919 180.625 287.466 160.365 276.449C140.105 265.432 125.981 250.798 128.834 243.892C131.688 236.986 150.378 240.439 170.638 251.456C190.897 262.637 205.022 277.107 202.168 284.013Z" fill="#A7BEDB"/>
<path d="M201.804 283.885C204.609 277.076 190.611 262.653 170.539 251.669C150.467 240.685 131.922 237.301 129.117 244.109C126.312 250.918 140.309 265.341 160.381 276.325C180.453 287.309 198.999 290.693 201.804 283.885Z" fill="#A6BEDA"/>
<path d="M201.598 283.684C198.744 290.426 180.339 287.137 160.365 276.285C140.391 265.432 126.551 250.962 129.405 244.221C132.258 237.479 150.663 240.768 170.638 251.62C190.469 262.637 204.451 276.942 201.598 283.684Z" fill="#A5BDDA"/>
<path d="M201.288 283.603C204.059 276.876 190.265 262.646 170.478 251.818C150.691 240.99 132.404 237.665 129.632 244.391C126.861 251.118 140.655 265.349 160.442 276.177C180.23 287.005 198.517 290.329 201.288 283.603Z" fill="#A4BCD9"/>
<path d="M201.03 283.462C203.802 276.735 190.123 262.568 170.478 251.817C150.833 241.067 132.662 237.806 129.89 244.532C127.119 251.259 140.798 265.426 160.443 276.176C180.087 286.927 198.259 290.188 201.03 283.462Z" fill="#A3BBD9"/>
<path d="M200.742 283.355C198.031 289.932 180.054 286.808 160.508 276.12C140.962 265.432 127.408 251.456 130.118 244.878C132.829 238.301 150.806 241.425 170.352 252.113C189.899 262.637 203.595 276.613 200.742 283.355Z" fill="#A1BAD8"/>
<path d="M200.456 283.191C197.746 289.768 179.911 286.479 160.508 275.956C141.247 265.432 127.693 251.456 130.404 244.878C133.114 238.301 150.949 241.59 170.352 252.113C189.756 262.637 203.167 276.613 200.456 283.191Z" fill="#A0BAD8"/>
<path d="M200.128 282.968C202.832 276.405 189.502 262.592 170.356 252.114C151.209 241.637 133.496 238.463 130.792 245.026C128.089 251.588 141.418 265.402 160.565 275.879C179.711 286.357 197.425 289.53 200.128 282.968Z" fill="#9FB9D8"/>
<path d="M200.028 282.862C197.317 289.275 179.769 286.151 160.793 275.791C141.675 265.268 128.406 251.62 131.117 245.207C133.828 238.794 151.377 241.919 170.352 252.278C189.328 262.637 202.596 276.449 200.028 282.862Z" fill="#9EB8D7"/>
<path d="M199.613 282.685C202.249 276.287 189.095 262.732 170.233 252.411C151.371 242.089 133.944 238.909 131.308 245.307C128.672 251.706 141.825 265.26 160.687 275.582C179.549 285.903 196.976 289.084 199.613 282.685Z" fill="#9DB7D7"/>
<path d="M199.458 282.533C196.889 288.946 179.483 285.822 160.793 275.462C142.103 265.103 128.977 251.784 131.688 245.372C134.256 238.959 151.662 242.083 170.352 252.442C189.042 262.637 202.026 276.12 199.458 282.533Z" fill="#9CB6D6"/>
<path d="M199.172 282.369C196.604 288.617 179.341 285.657 160.793 275.463C142.246 265.268 129.262 251.949 131.83 245.536C134.398 239.288 151.662 242.248 170.21 252.442C188.757 262.637 201.74 276.12 199.172 282.369Z" fill="#9BB6D6"/>
<path d="M198.887 282.204C196.319 288.453 179.198 285.329 160.793 275.298C142.388 265.268 129.548 251.949 132.116 245.701C134.684 239.452 151.805 242.576 170.21 252.607C188.614 262.637 201.455 275.956 198.887 282.204Z" fill="#9AB5D5"/>
<path d="M198.582 282.122C201.15 275.887 188.403 262.719 170.111 252.709C151.818 242.699 134.907 239.638 132.339 245.872C129.77 252.107 142.517 265.275 160.81 275.285C179.102 285.295 196.013 288.356 198.582 282.122Z" fill="#99B4D5"/>
<path d="M198.316 281.875C195.748 288.124 179.055 284.999 160.936 275.134C142.816 265.268 130.118 252.113 132.686 246.029C135.255 239.781 151.947 242.905 170.067 252.771C188.186 262.637 200.884 275.791 198.316 281.875Z" fill="#98B3D4"/>
<path d="M197.937 281.77C200.472 275.617 187.986 262.673 170.05 252.858C152.113 243.042 135.518 240.073 132.983 246.225C130.449 252.378 142.934 265.322 160.871 275.137C178.807 284.952 195.403 287.922 197.937 281.77Z" fill="#97B2D4"/>
<path d="M197.746 281.711C195.177 287.795 178.77 284.835 160.936 274.969C143.102 265.268 130.689 252.442 133.257 246.358C135.825 240.274 152.233 243.234 170.067 253.1C187.901 262.801 200.314 275.627 197.746 281.711Z" fill="#96B2D4"/>
<path d="M197.46 281.546C195.035 287.63 178.627 284.67 160.936 274.969C143.244 265.268 130.974 252.606 133.4 246.522C135.825 240.439 152.233 243.398 169.924 253.1C187.616 262.801 200.028 275.462 197.46 281.546Z" fill="#94B1D3"/>
<path d="M197.164 281.346C199.631 275.358 187.437 262.736 169.927 253.154C152.418 243.572 136.224 240.66 133.757 246.648C131.289 252.636 143.484 265.258 160.993 274.84C178.503 284.421 194.697 287.334 197.164 281.346Z" fill="#93B0D3"/>
<path d="M197.032 281.218C194.607 287.137 178.485 284.177 161.221 274.805C143.815 265.268 131.688 252.771 134.256 246.851C136.681 240.932 152.803 243.892 170.067 253.264C187.33 262.801 199.458 275.298 197.032 281.218Z" fill="#92AFD2"/>
<path d="M196.648 281.064C199.082 275.157 187.091 262.728 169.866 253.303C152.641 243.877 136.705 241.024 134.272 246.93C131.839 252.836 143.83 265.265 161.054 274.691C178.279 284.117 194.215 286.97 196.648 281.064Z" fill="#91AED2"/>
<path d="M196.391 280.923C198.79 275.098 186.887 262.799 169.805 253.451C152.723 244.103 136.929 241.247 134.53 247.071C132.13 252.895 144.033 265.195 161.116 274.542C178.198 283.89 193.991 286.747 196.391 280.923Z" fill="#90AED1"/>
<path d="M196.133 280.781C198.499 275.039 186.684 262.869 169.744 253.599C152.804 244.329 137.153 241.47 134.788 247.212C132.422 252.954 144.237 265.124 161.177 274.394C178.117 283.664 193.767 286.524 196.133 280.781Z" fill="#8FADD1"/>
<path d="M195.875 280.64C198.241 274.898 186.542 262.791 169.744 253.599C152.946 244.407 137.411 241.611 135.045 247.353C132.68 253.095 144.379 265.202 161.177 274.394C177.975 283.586 193.51 286.382 195.875 280.64Z" fill="#8EACD0"/>
<path d="M195.605 280.395C193.323 285.986 177.914 283.355 161.364 274.147C144.814 265.103 133.114 253.1 135.54 247.509C137.823 241.919 153.231 244.549 169.782 253.758C186.332 262.801 197.888 274.805 195.605 280.395Z" fill="#8DABD0"/>
<path d="M195.231 280.289C197.529 274.71 186.063 262.895 169.622 253.897C153.18 244.9 137.988 242.128 135.69 247.706C133.392 253.284 144.857 265.1 161.299 274.097C177.741 283.095 192.933 285.867 195.231 280.289Z" fill="#8CAACF"/>
<path d="M194.973 280.147C197.271 274.569 185.921 262.816 169.621 253.897C153.322 244.978 138.246 242.269 135.947 247.847C133.649 253.425 145 265.178 161.299 274.097C177.599 283.017 192.675 285.725 194.973 280.147Z" fill="#8AA9CF"/>
<path d="M194.749 280.067C192.467 285.493 177.486 282.862 161.364 273.983C145.242 265.103 133.97 253.429 136.253 248.002C138.536 242.576 153.517 245.207 169.639 254.086C185.761 262.801 197.032 274.476 194.749 280.067Z" fill="#89A9CF"/>
<path d="M194.464 279.902C192.181 285.328 177.486 282.698 161.364 273.983C145.384 265.268 134.256 253.758 136.396 248.167C138.679 242.741 153.374 245.372 169.496 254.087C185.618 262.801 196.747 274.476 194.464 279.902Z" fill="#88A8CE"/>
<path d="M194.2 279.724C196.431 274.31 185.372 262.88 169.499 254.194C153.627 245.509 138.951 242.856 136.721 248.27C134.49 253.684 145.549 265.115 161.422 273.8C177.294 282.486 191.969 285.138 194.2 279.724Z" fill="#87A7CE"/>
<path d="M193.942 279.583C196.139 274.251 185.168 262.95 169.438 254.342C153.708 245.734 139.175 243.079 136.979 248.411C134.782 253.743 145.753 265.043 161.483 273.651C177.213 282.259 191.745 284.915 193.942 279.583Z" fill="#86A6CD"/>
<path d="M193.751 279.409C191.611 284.67 177.201 282.04 161.649 273.654C146.098 265.103 135.255 253.922 137.395 248.66C139.535 243.398 153.945 246.029 169.496 254.415C185.048 262.966 195.891 274.147 193.751 279.409Z" fill="#85A5CD"/>
<path d="M193.465 279.244C191.325 284.506 177.058 281.875 161.649 273.489C146.24 265.103 135.54 253.922 137.68 248.66C139.82 243.398 154.087 246.029 169.496 254.415C184.905 262.966 195.605 273.982 193.465 279.244Z" fill="#84A4CC"/>
<path d="M193.04 279.089C195.169 273.921 184.547 262.975 169.315 254.64C154.084 246.304 140.01 243.737 137.881 248.905C135.751 254.073 146.373 265.019 161.605 273.354C176.837 281.69 190.911 284.257 193.04 279.089Z" fill="#82A4CC"/>
<path d="M192.895 278.916C190.755 284.013 176.773 281.547 161.649 273.325C146.526 265.103 135.968 254.251 138.108 248.989C140.248 243.892 154.23 246.358 169.353 254.58C184.477 262.801 195.035 273.818 192.895 278.916Z" fill="#81A3CB"/>
<path d="M192.524 278.807C194.62 273.721 184.201 262.967 169.254 254.788C154.307 246.608 140.491 244.101 138.396 249.186C136.301 254.272 146.719 265.026 161.666 273.205C176.613 281.385 190.429 283.893 192.524 278.807Z" fill="#80A2CB"/>
<path d="M192.324 278.587C190.184 283.684 176.63 281.218 161.792 272.996C146.954 264.939 136.681 254.251 138.821 249.154C140.961 244.056 154.515 246.523 169.353 254.744C184.191 262.966 194.321 273.654 192.324 278.587Z" fill="#7FA1CA"/>
<path d="M192.039 278.587C190.041 283.519 176.487 281.053 161.792 273.16C147.096 265.103 136.967 254.58 138.964 249.647C140.961 244.714 154.515 247.18 169.211 255.073C183.906 262.966 194.036 273.489 192.039 278.587Z" fill="#7EA0CA"/>
<path d="M191.751 278.384C193.779 273.462 183.652 263.031 169.132 255.085C154.612 247.14 141.197 244.688 139.17 249.61C137.142 254.532 147.269 264.963 161.789 272.909C176.309 280.855 189.724 283.306 191.751 278.384Z" fill="#7D9FC9"/>
<path d="M191.468 278.258C189.47 283.191 176.202 280.724 161.792 272.832C147.382 264.939 137.395 254.58 139.392 249.811C141.389 244.878 154.658 247.345 169.068 255.237C183.478 262.966 193.465 273.325 191.468 278.258Z" fill="#7B9EC9"/>
<path d="M191.183 278.094C189.185 282.862 176.059 280.56 161.934 272.832C147.667 265.103 137.823 254.909 139.82 249.976C141.817 245.207 154.943 247.509 169.068 255.238C183.335 262.966 193.18 273.161 191.183 278.094Z" fill="#7A9EC8"/>
<path d="M190.897 277.929C188.9 282.697 175.917 280.395 161.934 272.667C147.952 264.939 138.108 254.909 140.105 250.14C142.103 245.372 155.086 247.674 169.068 255.402C183.193 262.966 192.895 273.16 190.897 277.929Z" fill="#799DC8"/>
<path d="M190.612 277.765C188.614 282.533 175.774 280.231 161.934 272.503C148.095 264.939 138.393 254.909 140.248 250.14C142.245 245.372 155.086 247.674 168.925 255.402C182.907 262.966 192.609 272.996 190.612 277.765Z" fill="#789CC7"/>
<path d="M190.334 277.609C192.26 272.933 182.686 263.048 168.948 255.531C155.211 248.014 142.514 245.71 140.587 250.386C138.661 255.062 148.235 264.946 161.972 272.464C175.71 279.981 188.407 282.284 190.334 277.609Z" fill="#779BC7"/>
<path d="M190.184 277.436C188.329 282.04 175.774 279.738 162.077 272.338C148.523 264.939 138.964 255.073 140.961 250.469C142.816 245.865 155.371 248.167 169.068 255.566C182.622 263.13 192.039 272.831 190.184 277.436Z" fill="#759AC6"/>
<path d="M189.899 277.271C188.044 281.875 175.631 279.573 162.077 272.174C148.523 264.774 139.249 255.073 141.104 250.633C142.959 246.029 155.372 248.331 168.925 255.731C182.337 263.13 191.753 272.667 189.899 277.271Z" fill="#7499C6"/>
<path d="M189.56 277.185C191.419 272.673 182.136 263.111 168.826 255.827C155.516 248.544 143.219 246.297 141.36 250.809C139.502 255.32 148.785 264.882 162.095 272.166C175.405 279.449 187.702 281.696 189.56 277.185Z" fill="#7398C5"/>
<path d="M189.328 276.942C187.473 281.382 175.346 279.244 162.22 272.009C149.094 264.774 139.963 255.402 141.817 250.962C143.672 246.523 155.799 248.66 168.925 255.895C182.051 263.13 191.183 272.503 189.328 276.942Z" fill="#7297C5"/>
<path d="M189.042 276.942C187.188 281.382 175.203 279.244 162.22 272.01C149.237 264.939 140.248 255.566 141.96 251.127C143.672 246.687 155.8 248.825 168.783 256.06C181.766 263.13 190.897 272.503 189.042 276.942Z" fill="#7197C4"/>
<path d="M188.757 276.778C186.902 281.218 175.06 279.08 162.22 272.009C149.379 264.939 140.391 255.731 142.246 251.291C144.1 246.851 155.942 248.989 168.783 256.06C181.623 263.13 190.612 272.338 188.757 276.778Z" fill="#6F96C4"/>
<path d="M188.472 276.613C186.76 280.889 174.918 278.751 162.22 271.845C149.522 264.939 140.676 255.731 142.531 251.456C144.243 247.18 156.085 249.318 168.783 256.224C181.481 263.13 190.327 272.174 188.472 276.613Z" fill="#6E95C3"/>
<path d="M188.186 276.449C186.474 280.724 174.775 278.587 162.362 271.68C149.807 264.774 141.104 255.731 142.816 251.456C144.528 247.18 156.228 249.318 168.64 256.224C181.195 263.13 190.041 272.174 188.186 276.449Z" fill="#6D94C3"/>
<path d="M187.901 276.285C186.189 280.56 174.775 278.422 162.363 271.68C149.95 264.939 141.39 256.06 143.102 251.784C144.814 247.509 156.228 249.647 168.64 256.388C181.053 263.13 189.613 272.009 187.901 276.285Z" fill="#6C93C2"/>
<path d="M187.616 276.12C185.904 280.231 174.632 278.258 162.363 271.516C150.093 264.774 141.675 256.06 143.387 251.784C145.099 247.674 156.37 249.647 168.64 256.388C180.91 263.13 189.328 272.009 187.616 276.12Z" fill="#6B92C2"/>
<path d="M187.369 275.987C189.059 271.885 180.62 263.193 168.52 256.571C156.42 249.95 145.241 247.907 143.551 252.009C141.862 256.11 150.301 264.803 162.401 271.424C174.501 278.046 185.68 280.088 187.369 275.987Z" fill="#6991C1"/>
<path d="M187.188 275.791C185.476 279.902 174.49 277.929 162.505 271.352C150.521 264.774 142.246 256.224 143.958 252.113C145.67 248.002 156.656 249.976 168.64 256.553C180.625 263.13 188.757 271.68 187.188 275.791Z" fill="#6890C1"/>
<path d="M186.902 275.627C185.19 279.573 174.347 277.6 162.648 271.187C150.806 264.774 142.674 256.224 144.243 252.278C145.955 248.331 156.798 250.305 168.498 256.717C180.339 263.13 188.472 271.681 186.902 275.627Z" fill="#678FC0"/>
<path d="M186.617 275.462C185.048 279.409 174.204 277.436 162.648 271.187C150.949 264.775 142.959 256.389 144.528 252.442C146.098 248.496 156.941 250.469 168.497 256.717C180.054 263.13 188.186 271.516 186.617 275.462Z" fill="#668FC0"/>
<path d="M186.332 275.298C184.762 279.244 174.062 277.271 162.648 271.023C151.234 264.774 143.102 256.553 144.814 252.606C146.383 248.66 157.084 250.633 168.497 256.882C179.911 263.13 187.901 271.516 186.332 275.298Z" fill="#648EBF"/>
<path d="M185.952 275.21C187.54 271.355 179.653 263.209 168.336 257.016C157.019 250.823 146.557 248.928 144.969 252.783C143.38 256.639 151.267 264.785 162.584 270.978C173.901 277.171 184.363 279.066 185.952 275.21Z" fill="#638DBF"/>
<path d="M185.761 275.134C184.192 278.915 173.919 277.107 162.648 271.023C151.519 264.939 143.672 256.882 145.242 253.1C146.811 249.318 157.084 251.127 168.355 257.211C179.483 263.295 187.33 271.187 185.761 275.134Z" fill="#628CBE"/>
<path d="M185.476 274.969C183.906 278.751 173.776 276.942 162.648 270.858C151.662 264.774 143.958 256.882 145.527 253.1C147.096 249.318 157.226 251.127 168.355 257.211C179.483 263.295 187.045 271.187 185.476 274.969Z" fill="#618BBE"/>
<path d="M185.19 274.805C183.621 278.587 173.634 276.613 162.79 270.694C151.947 264.774 144.386 256.882 145.812 253.264C147.382 249.482 157.369 251.456 168.212 257.375C179.198 263.295 186.76 271.023 185.19 274.805Z" fill="#5F8ABD"/>
<path d="M184.921 274.645C186.441 270.954 178.961 263.194 168.214 257.312C157.466 251.431 147.521 249.655 146 253.347C144.479 257.038 151.959 264.799 162.706 270.68C173.454 276.561 183.4 278.337 184.921 274.645Z" fill="#5E89BD"/>
<path d="M184.62 274.476C183.193 278.093 173.348 276.285 162.791 270.529C152.233 264.774 144.814 257.211 146.383 253.593C147.81 249.976 157.654 251.784 168.212 257.539C178.77 263.295 186.189 270.858 184.62 274.476Z" fill="#5D88BC"/>
<path d="M184.334 274.311C182.907 277.929 173.206 276.12 162.791 270.365C152.375 264.61 145.099 257.211 146.526 253.593C147.952 249.976 157.654 251.784 168.069 257.539C178.627 263.295 185.904 270.694 184.334 274.311Z" fill="#5C87BC"/>
<path d="M184.049 274.147C182.622 277.6 173.063 275.956 162.791 270.365C152.518 264.774 145.384 257.375 146.811 253.922C148.238 250.469 157.797 252.113 168.069 257.704C178.342 263.294 185.618 270.694 184.049 274.147Z" fill="#5A86BB"/>
<path d="M183.906 273.982C182.479 277.436 173.063 275.791 163.076 270.201C152.946 264.61 145.955 257.375 147.382 253.922C148.809 250.469 158.225 252.113 168.212 257.704C178.199 263.294 185.19 270.529 183.906 273.982Z" fill="#5985BB"/>
<path d="M183.621 273.818C182.194 277.271 173.063 275.627 163.076 270.036C153.089 264.61 146.098 257.375 147.524 254.086C148.951 250.633 158.082 252.278 168.069 257.868C178.057 263.295 184.905 270.53 183.621 273.818Z" fill="#5884BA"/>
<path d="M183.336 273.654C181.909 276.942 172.92 275.298 163.076 270.036C153.231 264.61 146.383 257.539 147.81 254.251C149.237 250.962 158.225 252.606 168.069 257.868C177.771 263.294 184.62 270.365 183.336 273.654Z" fill="#5784BA"/>
<path d="M183.05 273.654C181.623 276.942 172.778 275.298 163.076 270.036C153.374 264.774 146.668 257.868 148.095 254.415C149.522 251.127 158.368 252.771 168.069 258.033C177.629 263.295 184.334 270.201 183.05 273.654Z" fill="#5583B9"/>
<path d="M182.765 273.489C181.481 276.778 172.635 275.134 163.076 269.872C153.517 264.61 146.954 257.868 148.238 254.58C149.522 251.291 158.368 252.935 167.927 258.197C177.486 263.295 184.049 270.201 182.765 273.489Z" fill="#5482B9"/>
<path d="M182.479 273.325C181.195 276.449 172.492 274.969 163.076 269.872C153.659 264.774 147.239 258.033 148.523 254.744C149.807 251.62 158.51 253.1 167.927 258.197C177.2 263.294 183.763 270.036 182.479 273.325Z" fill="#5381B8"/>
<path d="M182.194 273.16C180.91 276.285 172.35 274.805 163.219 269.707C153.945 264.61 147.524 258.033 148.809 254.909C150.093 251.784 158.653 253.264 167.784 258.362C177.058 263.295 183.478 270.036 182.194 273.16Z" fill="#5280B8"/>
<path d="M181.909 272.996C180.625 276.12 172.207 274.64 163.219 269.543C154.087 264.61 147.81 258.033 149.094 254.909C150.378 251.784 158.796 253.264 167.784 258.362C176.915 263.295 183.193 269.872 181.909 272.996Z" fill="#507FB7"/>
<path d="M181.623 272.832C180.339 275.791 172.064 274.311 163.219 269.543C154.373 264.61 148.095 258.197 149.379 255.237C150.663 252.278 158.938 253.758 167.784 258.526C176.63 263.295 182.907 269.872 181.623 272.832Z" fill="#4F7EB7"/>
<path d="M181.338 272.667C180.054 275.627 172.064 274.147 163.218 269.378C154.515 264.61 148.38 258.362 149.522 255.237C150.806 252.278 158.796 253.758 167.641 258.526C176.487 263.459 182.622 269.707 181.338 272.667Z" fill="#4E7DB6"/>
<path d="M181.053 272.503C179.911 275.462 171.922 273.983 163.219 269.214C154.658 264.446 148.666 258.362 149.807 255.402C150.949 252.442 158.938 253.922 167.641 258.691C176.344 263.459 182.337 269.543 181.053 272.503Z" fill="#4C7CB5"/>
<path d="M180.767 272.338C179.626 275.298 171.779 273.818 163.361 269.214C154.943 264.61 148.951 258.526 150.235 255.566C151.377 252.607 159.224 254.087 167.641 258.691C176.059 263.459 182.051 269.543 180.767 272.338Z" fill="#4B7BB5"/>
<path d="M180.625 272.174C179.483 274.969 171.779 273.654 163.504 269.05C155.229 264.446 149.379 258.526 150.521 255.731C151.662 252.935 159.366 254.251 167.641 258.855C175.917 263.459 181.766 269.378 180.625 272.174Z" fill="#4A7AB4"/>
<path d="M180.339 272.009C179.198 274.805 171.636 273.489 163.504 268.885C155.371 264.446 149.665 258.526 150.806 255.731C151.947 252.935 159.509 254.251 167.641 258.855C175.774 263.459 181.481 269.378 180.339 272.009Z" fill="#4979B4"/>
<path d="M180.054 272.009C178.913 274.805 171.494 273.325 163.504 269.05C155.514 264.61 149.95 258.855 151.091 256.224C152.233 253.429 159.652 254.909 167.641 259.184C175.488 263.459 181.195 269.214 180.054 272.009Z" fill="#4778B3"/>
<path d="M179.769 271.845C178.627 274.476 171.351 273.16 163.504 268.885C155.657 264.61 150.235 258.855 151.234 256.224C152.375 253.593 159.652 254.909 167.499 259.184C175.346 263.459 180.767 269.05 179.769 271.845Z" fill="#4677B3"/>
<path d="M179.483 271.681C178.342 274.312 171.351 272.996 163.647 268.721C155.942 264.446 150.521 259.019 151.662 256.389C152.803 253.758 159.794 255.073 167.499 259.348C175.203 263.459 180.482 269.05 179.483 271.681Z" fill="#4576B2"/>
<path d="M179.198 271.516C178.199 274.147 171.208 272.832 163.647 268.721C156.085 264.61 150.806 259.184 151.947 256.553C152.946 253.922 159.937 255.237 167.499 259.348C174.918 263.459 180.197 268.885 179.198 271.516Z" fill="#4375B2"/>
<path d="M178.913 271.352C177.914 273.818 171.066 272.667 163.647 268.556C156.228 264.446 151.091 259.184 152.09 256.717C153.089 254.251 159.937 255.402 167.356 259.513C174.775 263.459 179.911 268.885 178.913 271.352Z" fill="#4274B1"/>
<path d="M178.627 271.187C177.629 273.654 170.923 272.503 163.647 268.556C156.37 264.61 151.377 259.348 152.375 256.882C153.374 254.415 160.08 255.566 167.356 259.513C174.632 263.459 179.626 268.721 178.627 271.187Z" fill="#4173B1"/>
<path d="M178.342 271.023C177.343 273.489 170.78 272.174 163.647 268.392C156.513 264.446 151.662 259.348 152.661 257.046C153.659 254.58 160.222 255.895 167.356 259.677C174.347 263.459 179.341 268.556 178.342 271.023Z" fill="#3F72B0"/>
<path d="M178.09 270.908C179.07 268.529 174.21 263.506 167.235 259.689C160.26 255.872 153.81 254.706 152.83 257.085C151.85 259.464 156.71 264.487 163.686 268.304C170.661 272.121 177.11 273.287 178.09 270.908Z" fill="#3E72B0"/>
<path d="M177.771 270.694C176.773 272.996 170.495 271.845 163.789 268.227C156.941 264.446 152.233 259.677 153.231 257.375C154.23 255.073 160.508 256.224 167.213 259.841C174.062 263.459 178.77 268.392 177.771 270.694Z" fill="#3D71AF"/>
<path d="M177.486 270.529C176.487 272.832 170.352 271.681 163.789 268.063C157.084 264.446 152.518 259.677 153.517 257.375C154.515 255.073 160.65 256.224 167.213 259.841C173.919 263.459 178.485 268.392 177.486 270.529Z" fill="#3B70AE"/>
<path d="M177.343 270.365C176.487 272.503 170.495 271.516 163.932 267.899C157.369 264.281 152.946 259.677 153.802 257.539C154.658 255.402 160.65 256.388 167.213 260.006C173.634 263.623 178.199 268.227 177.343 270.365Z" fill="#3A6FAE"/>
<path d="M177.058 270.201C176.202 272.338 170.352 271.352 163.932 267.899C157.654 264.446 153.231 259.841 154.087 257.704C154.944 255.566 160.793 256.553 167.213 260.006C173.491 263.623 177.914 268.063 177.058 270.201Z" fill="#396EAD"/>
<path d="M176.773 270.201C175.917 272.338 170.21 271.352 163.932 267.899C157.797 264.446 153.374 260.006 154.23 257.868C155.086 255.731 160.793 256.717 167.071 260.17C173.348 263.623 177.629 268.063 176.773 270.201Z" fill="#376DAD"/>
<path d="M176.487 270.036C175.631 272.174 170.067 271.023 164.075 267.734C158.082 264.446 153.802 260.006 154.658 258.033C155.514 255.895 161.078 257.046 167.071 260.335C173.063 263.624 177.343 267.899 176.487 270.036Z" fill="#366CAC"/>
<path d="M176.202 269.872C175.346 271.845 169.924 270.858 164.075 267.734C158.225 264.446 154.087 260.335 154.943 258.197C155.8 256.224 161.221 257.211 167.071 260.335C172.92 263.623 177.058 267.899 176.202 269.872Z" fill="#356BAC"/>
<path d="M175.916 269.707C175.06 271.681 169.781 270.694 164.075 267.57C158.368 264.446 154.373 260.335 155.086 258.362C155.942 256.388 161.221 257.375 166.928 260.499C172.778 263.623 176.772 267.734 175.916 269.707Z" fill="#336AAB"/>
<path d="M175.631 269.543C174.918 271.516 169.639 270.53 164.075 267.405C158.51 264.281 154.658 260.335 155.372 258.362C156.085 256.388 161.364 257.375 166.928 260.499C172.492 263.623 176.487 267.57 175.631 269.543Z" fill="#3269AB"/>
<path d="M175.346 269.378C174.632 271.187 169.496 270.365 164.075 267.405C158.653 264.446 154.801 260.499 155.657 258.69C156.37 256.882 161.506 257.704 166.928 260.664C172.35 263.623 176.059 267.57 175.346 269.378Z" fill="#3168AA"/>
<path d="M175.06 269.214C174.347 271.023 169.496 270.201 164.075 267.241C158.796 264.281 155.086 260.499 155.8 258.69C156.513 256.882 161.364 257.704 166.785 260.664C172.207 263.623 175.774 267.405 175.06 269.214Z" fill="#2F67AA"/>
<path d="M174.739 269.075C175.449 267.352 171.87 263.682 166.745 260.878C161.621 258.074 156.891 257.197 156.181 258.919C155.471 260.642 159.05 264.312 164.175 267.116C169.3 269.921 174.03 270.798 174.739 269.075Z" fill="#2E66A9"/>
<path d="M174.49 268.885C173.776 270.529 169.211 269.707 164.217 267.076C159.224 264.281 155.8 260.828 156.513 259.019C157.226 257.375 161.792 258.197 166.785 260.828C171.779 263.623 175.203 267.241 174.49 268.885Z" fill="#2D65A8"/>
<path d="M174.204 268.721C173.491 270.365 169.068 269.543 164.217 266.912C159.366 264.281 156.085 260.828 156.656 259.184C157.369 257.54 161.792 258.362 166.643 260.993C171.636 263.623 174.918 267.076 174.204 268.721Z" fill="#2B64A8"/>
<path d="M174.062 268.556C173.348 270.201 169.068 269.379 164.36 266.748C159.652 264.117 156.37 260.828 157.084 259.184C157.797 257.54 162.077 258.362 166.785 260.993C171.351 263.623 174.632 267.076 174.062 268.556Z" fill="#2A63A7"/>
<path d="M173.776 268.556C173.206 270.036 168.925 269.378 164.36 266.912C159.794 264.446 156.656 261.157 157.369 259.677C157.94 258.197 162.22 258.855 166.785 261.321C171.208 263.623 174.347 266.912 173.776 268.556Z" fill="#2962A7"/>
<path d="M173.491 268.392C172.92 269.872 168.783 269.214 164.503 266.748C160.08 264.281 157.084 261.157 157.654 259.677C158.225 258.197 162.363 258.855 166.643 261.321C171.066 263.623 174.062 266.912 173.491 268.392Z" fill="#2761A6"/>
<path d="M173.206 268.228C172.635 269.707 168.64 268.885 164.503 266.583C160.222 264.281 157.369 261.157 157.94 259.842C158.51 258.362 162.505 259.184 166.643 261.486C170.78 263.623 173.776 266.748 173.206 268.228Z" fill="#2660A6"/>
<path d="M172.92 268.063C172.35 269.379 168.64 268.721 164.503 266.583C160.365 264.281 157.654 261.486 158.225 260.006C158.796 258.691 162.505 259.348 166.643 261.486C170.638 263.788 173.491 266.583 172.92 268.063Z" fill="#255FA5"/>
<path d="M172.635 267.899C172.064 269.214 168.497 268.556 164.503 266.419C160.508 264.281 157.797 261.486 158.368 260.17C158.938 258.855 162.505 259.513 166.5 261.65C170.495 263.788 173.206 266.583 172.635 267.899Z" fill="#235EA4"/>
<path d="M172.35 267.734C171.779 269.05 168.355 268.392 164.503 266.254C160.793 264.117 158.082 261.486 158.653 260.17C159.224 258.855 162.648 259.513 166.5 261.65C170.21 263.788 172.92 266.419 172.35 267.734Z" fill="#225DA4"/>
<path d="M172.064 267.57C171.494 268.885 168.212 268.227 164.645 266.254C161.078 264.281 158.51 261.65 158.938 260.499C159.509 259.184 162.791 259.841 166.357 261.815C170.067 263.788 172.635 266.419 172.064 267.57Z" fill="#205CA3"/>
<path d="M171.779 267.405C171.351 268.556 168.069 268.063 164.645 266.09C161.221 264.117 158.796 261.65 159.224 260.499C159.652 259.348 162.933 259.842 166.357 261.815C169.924 263.788 172.35 266.254 171.779 267.405Z" fill="#1F5BA3"/>
<path d="M171.494 267.241C171.066 268.392 167.927 267.899 164.645 265.925C161.364 264.117 158.938 261.65 159.509 260.664C159.937 259.513 163.076 260.006 166.357 261.979C169.639 263.788 172.064 266.09 171.494 267.241Z" fill="#1E5AA2"/>
<path d="M171.26 267.171C171.699 266.104 169.459 263.819 166.256 262.066C163.053 260.313 160.1 259.757 159.661 260.823C159.222 261.89 161.462 264.175 164.665 265.928C167.868 267.681 170.82 268.237 171.26 267.171Z" fill="#1C59A2"/>
<path d="M170.923 266.912C170.495 267.899 167.641 267.405 164.645 265.761C161.649 264.117 159.509 261.979 159.937 260.828C160.365 259.842 163.219 260.335 166.215 261.979C169.353 263.788 171.351 265.926 170.923 266.912Z" fill="#1B58A1"/>
<path d="M170.78 266.912C170.352 267.899 167.784 267.405 164.788 265.761C161.934 264.117 159.937 262.144 160.365 261.157C160.793 260.171 163.361 260.664 166.357 262.308C169.068 263.788 171.066 265.926 170.78 266.912Z" fill="#1957A0"/>
<path d="M170.495 266.748C170.067 267.734 167.641 267.241 164.931 265.761C162.22 264.281 160.365 262.308 160.65 261.321C161.078 260.335 163.504 260.828 166.215 262.308C168.925 263.788 170.78 265.761 170.495 266.748Z" fill="#1856A0"/>
<path d="M170.21 266.583C169.782 267.405 167.499 267.077 164.931 265.597C162.362 264.117 160.508 262.308 160.936 261.486C161.364 260.664 163.647 260.993 166.215 262.473C168.783 263.788 170.495 265.597 170.21 266.583Z" fill="#17559F"/>
<path d="M169.924 266.419C169.639 267.241 167.356 266.912 164.931 265.597C162.505 264.281 160.793 262.473 161.221 261.65C161.506 260.828 163.789 261.157 166.215 262.473C168.497 263.788 170.21 265.597 169.924 266.419Z" fill="#15549F"/>
<path d="M169.639 266.254C169.354 267.077 167.213 266.583 164.931 265.432C162.648 264.117 161.078 262.637 161.364 261.815C161.649 260.993 163.789 261.486 166.072 262.637C168.355 263.788 169.924 265.432 169.639 266.254Z" fill="#14539E"/>
<path d="M169.354 266.09C169.068 266.748 167.071 266.419 164.931 265.268C162.791 264.117 161.364 262.637 161.649 261.815C161.935 261.157 163.932 261.486 166.072 262.637C168.212 263.788 169.639 265.432 169.354 266.09Z" fill="#12529E"/>
<path d="M169.068 265.926C168.783 266.583 166.928 266.254 165.073 265.268C163.076 264.117 161.792 262.801 162.077 262.144C162.362 261.486 164.217 261.815 166.072 262.801C167.927 263.788 169.353 265.268 169.068 265.926Z" fill="#11519D"/>
<path d="M168.783 265.761C168.497 266.419 166.785 266.09 165.073 265.103C163.218 264.117 161.934 262.801 162.22 262.144C162.505 261.486 164.217 261.815 165.929 262.801C167.784 263.952 169.068 265.103 168.783 265.761Z" fill="#104F9C"/>
<path d="M168.497 265.597C168.212 266.09 166.785 265.926 165.073 264.939C163.361 263.952 162.22 262.801 162.505 262.308C162.79 261.815 164.217 261.979 165.929 262.966C167.641 263.952 168.783 265.103 168.497 265.597Z" fill="#0E4E9C"/>
<path d="M168.212 265.432C168.069 265.925 166.643 265.761 165.073 264.939C163.504 264.117 162.505 262.966 162.79 262.472C162.933 261.979 164.36 262.143 165.929 262.966C167.356 263.952 168.497 264.939 168.212 265.432Z" fill="#0D4D9B"/>
<path d="M167.927 265.268C167.784 265.761 166.5 265.432 165.073 264.775C163.647 263.952 162.79 263.13 162.933 262.637C163.076 262.144 164.36 262.473 165.787 263.13C167.213 263.952 168.212 264.939 167.927 265.268Z" fill="#0B4C9B"/>
<path d="M167.641 265.268C167.499 265.761 166.357 265.432 165.216 264.775C164.075 264.117 163.219 263.295 163.361 262.801C163.504 262.308 164.645 262.637 165.787 263.295C167.071 263.952 167.927 264.775 167.641 265.268Z" fill="#0A4B9A"/>
<path d="M167.499 265.103C167.356 265.432 166.357 265.268 165.359 264.775C164.36 264.117 163.504 263.459 163.647 263.13C163.789 262.801 164.788 262.966 165.787 263.459C166.785 263.952 167.641 264.61 167.499 265.103Z" fill="#094A9A"/>
<path d="M167.213 264.939C167.071 265.268 166.215 265.103 165.359 264.61C164.503 264.117 163.789 263.459 163.932 263.13C164.075 262.801 164.931 262.966 165.787 263.459C166.643 263.952 167.213 264.61 167.213 264.939Z" fill="#074999"/>
<path d="M166.928 264.775C166.785 265.103 166.072 264.939 165.359 264.446C164.645 263.952 164.075 263.459 164.217 263.295C164.36 262.966 165.073 263.13 165.787 263.624C166.5 264.117 166.928 264.446 166.928 264.775Z" fill="#064898"/>
<path d="M166.643 264.61C166.5 264.774 165.929 264.774 165.359 264.445C164.788 264.117 164.36 263.623 164.36 263.459C164.503 263.294 165.073 263.294 165.644 263.623C166.215 263.952 166.643 264.445 166.643 264.61Z" fill="#044798"/>
<path d="M166.357 264.445C166.357 264.61 165.929 264.445 165.359 264.281C164.931 263.952 164.645 263.788 164.645 263.623C164.645 263.459 165.073 263.623 165.644 263.788C166.072 263.952 166.357 264.281 166.357 264.445Z" fill="#034697"/>
<path d="M166.072 264.281C166.072 264.445 165.787 264.281 165.501 264.117C165.216 263.952 164.931 263.788 165.073 263.623C165.073 263.459 165.359 263.623 165.644 263.788C165.929 263.952 166.072 264.117 166.072 264.281Z" fill="#014597"/>
<path d="M165.787 264.116C165.787 264.116 165.644 264.116 165.501 264.116C165.359 263.952 165.216 263.952 165.216 263.952C165.216 263.952 165.359 263.952 165.501 263.952C165.644 263.952 165.787 264.116 165.787 264.116Z" fill="#004496"/>
<path opacity="0.4" d="M316.675 118.21L162.873 220.65C159.734 222.788 155.168 222.952 152.458 221.143L58.2931 158.495C55.5823 156.686 56.0103 153.562 59.0064 151.589L212.809 49.1487C215.947 47.0111 220.513 46.8467 223.224 48.6554L317.388 111.304C320.099 113.112 319.814 116.236 316.675 118.21Z" fill="white"/>
<path opacity="0.2" d="M300.553 120.347L165.869 209.962C163.158 211.771 159.021 211.935 156.738 210.455L74.2725 155.535C71.9898 154.056 72.2751 151.26 74.9859 149.451L209.67 59.8367C212.381 58.028 216.518 57.8635 218.801 59.3434L301.266 114.263C303.549 115.743 303.264 118.538 300.553 120.347Z" fill="#041860"/>
<path d="M157.023 222.952C155.168 222.952 153.456 222.459 152.172 221.637L58.0077 158.988C56.7237 158.166 55.8676 156.851 55.8676 155.371C55.8676 153.727 56.8664 152.082 58.7211 150.931L212.523 48.4909C215.805 46.3533 220.656 46.1889 223.509 47.9976L317.674 110.646C318.958 111.468 319.814 112.783 319.814 114.263C319.814 115.908 318.815 117.552 316.96 118.703L163.158 221.143C161.303 222.294 159.163 222.952 157.023 222.952ZM218.801 47.9976C216.803 47.9976 214.806 48.4909 213.237 49.6419L59.2918 152.082C57.8651 153.069 57.009 154.22 57.009 155.535C57.009 156.522 57.5797 157.344 58.5784 158.002L152.743 220.65C155.311 222.294 159.734 222.13 162.587 220.157L316.389 117.716C317.816 116.73 318.672 115.579 318.672 114.263C318.672 113.277 318.102 112.455 317.103 111.797L222.938 49.1486C221.797 48.3265 220.37 47.9976 218.801 47.9976Z" fill="white"/>
<path d="M319.243 88.2833L317.531 89.7632C317.531 89.7632 317.531 89.7632 317.388 89.7632L223.224 27.115C220.513 25.3063 215.805 25.6352 212.808 27.6083L59.0064 130.049C58.5784 130.213 58.2931 130.542 58.0077 130.871L56.4383 129.555V133.995C56.4383 135.146 57.009 136.297 58.293 137.119L152.458 199.767C155.168 201.576 159.877 201.247 162.873 199.274L316.675 96.8337C318.387 95.6827 319.243 94.2028 319.243 92.8874V88.2833Z" fill="white"/>
<path d="M316.675 92.2296L162.873 194.67C159.734 196.808 155.168 196.972 152.458 195.163L58.1504 132.351C55.4396 130.542 55.8676 127.418 58.8638 125.445L212.666 23.0043C215.805 20.8667 220.37 20.7022 223.081 22.511L317.246 85.1591C320.099 87.1323 319.814 90.092 316.675 92.2296Z" fill="url(#paint2_linear_2_680)"/>
<path d="M195.26 72.0046L181.991 63.1254L185.273 60.9878C185.843 60.6589 186.414 60.3301 186.985 60.0012C187.555 59.8368 188.126 59.6723 188.697 59.5079C189.267 59.5079 189.981 59.5079 190.551 59.6723C191.122 59.8368 191.836 60.1656 192.406 60.4945C193.976 61.6455 194.261 62.6321 193.262 63.6187C194.261 63.1254 195.117 62.961 195.973 63.1254C196.829 63.2898 197.828 63.6187 198.827 64.2764C200.111 65.0985 200.681 65.9207 200.681 66.7429C200.681 67.565 200.111 68.3872 198.827 69.2093L195.26 72.0046ZM189.838 65.263L190.551 64.7697C191.265 64.2764 191.55 63.9475 191.55 63.4542C191.55 63.1254 191.122 62.6321 190.409 62.1388C189.981 61.8099 189.695 61.6455 189.41 61.6455C189.125 61.4811 188.839 61.4811 188.411 61.6455C188.126 61.6455 187.841 61.8099 187.555 61.9744C187.27 62.1388 186.842 62.3032 186.557 62.6321L186.271 62.7965L189.838 65.263ZM195.973 69.3738L196.829 68.716C197.542 68.2227 197.828 67.7294 197.828 67.4006C197.828 67.0717 197.4 66.5784 196.544 66.0851C195.688 65.5918 194.974 65.263 194.404 65.263C193.69 65.263 192.977 65.4274 192.264 65.9207L191.55 66.414L195.973 69.3738Z" fill="white"/>
<path d="M203.677 66.5784L193.12 56.0548L195.688 54.4105L211.667 61.481L209.384 62.9609L205.818 61.3166L203.535 62.7965L206.103 65.2629L203.677 66.5784ZM202.108 61.3166L203.82 60.1656L197.542 57.2058L202.108 61.3166Z" fill="white"/>
<path d="M212.809 60.33L199.54 51.4508L201.252 50.2998L211.952 53.0951L204.391 48.1622L206.388 46.8467L219.657 55.726L218.087 56.7126L206.959 53.5884L214.806 58.8502L212.809 60.33Z" fill="white"/>
<path d="M221.654 54.4104L208.386 45.5312L210.811 43.8869L216.518 47.6688L213.379 42.0781L215.662 40.5983L219.086 46.1889L229.216 49.1487L226.79 50.793L218.23 48.1621L218.658 48.9842L224.08 52.6017L221.654 54.4104Z" fill="white"/>
<path d="M180.992 157.015L151.459 176.583L148.035 174.281L177.568 154.713L180.992 157.015Z" fill="white"/>
<path d="M217.231 132.844L187.698 152.411L184.274 150.274L213.807 130.542L217.231 132.844Z" fill="white"/>
<path d="M253.47 108.673L223.937 128.404L220.513 126.102L250.046 106.535L253.47 108.673Z" fill="white"/>
<path d="M289.71 84.6659L260.176 104.233L256.752 101.931L286.285 82.3639L289.71 84.6659Z" fill="white"/>
<g filter="url(#filter0_d_2_680)">
<path d="M314.595 220.378L267.228 188.643C257.811 182.394 248.965 181.408 242.26 185.847C235.554 190.287 231.844 199.66 231.844 212.156V216.103C232.13 216.432 232.558 216.596 232.843 216.925V212.156C232.843 200.153 236.267 191.109 242.688 186.998C248.965 182.723 257.526 183.71 266.514 189.794L313.882 221.529C314.167 221.693 314.452 221.529 314.595 221.364C314.88 220.871 314.738 220.542 314.595 220.378Z" fill="white"/>
<path d="M166.928 182.559V59.7291C166.928 35.0645 151.947 5.13804 133.4 -7.19427C124.411 -13.2782 115.851 -14.2648 109.288 -9.98959C102.868 -5.71439 99.3008 3.3293 99.3008 15.3328V23.8832C99.5861 24.212 100.014 24.7053 100.3 25.0342V15.3328C100.3 3.65816 103.724 -4.89224 109.716 -9.00301C115.851 -13.1138 123.983 -12.1272 132.686 -6.37212C150.949 5.79576 165.644 35.2289 165.644 59.5646V182.559C165.644 202.948 176.059 227.12 190.184 241.59C190.184 241.096 190.184 240.439 190.184 239.945C176.915 225.64 166.928 202.291 166.928 182.559Z" fill="white"/>
<path d="M190.469 241.096C190.469 241.096 178.485 226.955 173.776 215.281C169.068 203.606 166.643 192.753 166.643 183.217C166.5 173.515 166.5 90.8064 166.5 90.8064C166.5 90.8064 167.071 56.4404 165.787 51.0141C164.503 45.5879 161.649 16.6481 136.967 -4.07018C112.284 -24.7885 100.157 -2.42587 100.299 9.24871C100.442 20.9233 100.299 28.4871 100.299 28.4871C100.299 28.4871 113.711 40.9839 118.847 58.9068C123.983 76.8298 124.411 73.7056 124.554 91.6286C124.697 109.387 124.697 199.988 124.697 199.988C124.697 199.988 123.555 215.938 126.979 228.106C130.404 240.438 136.539 254.086 143.958 262.965C151.234 271.845 162.077 282.368 172.064 281.382C182.051 280.395 188.757 276.12 190.754 257.868V241.096H190.469Z" fill="white"/>
<path d="M109.288 -9.98962L67.9126 17.4703L100.3 28.6516L109.288 -9.98962Z" fill="white"/>
<path d="M231.987 216.103V221.693C229.704 219.72 218.861 211.17 208.589 211.663C197.032 212.156 193.18 224.324 193.18 224.324C193.18 224.324 190.469 233.368 190.612 237.643C190.612 238.301 190.612 239.288 190.755 240.11L190.612 239.945C190.612 240.439 190.612 241.096 190.612 241.59C190.755 241.59 190.755 241.754 190.897 241.754C191.04 245.865 191.04 250.469 191.04 250.469C191.04 250.469 191.183 258.526 190.184 263.952C188.329 273.654 181.338 279.08 180.767 279.902L223.284 251.784H223.427L223.569 251.62L223.855 251.455C229.99 247.016 233.414 238.301 233.414 226.626V216.925C232.701 216.596 232.273 216.432 231.987 216.103Z" fill="url(#paint3_linear_2_680)"/>
<path d="M198.887 214.787L242.402 185.847C242.402 185.847 249.821 181.408 258.81 185.19C267.798 188.972 314.738 221.364 314.738 221.364L272.792 249.153C272.792 249.153 223.997 214.294 218.291 212.65C206.449 209.197 198.887 214.787 198.887 214.787Z" fill="white"/>
<path d="M99.3008 27.6651C97.5887 25.8563 89.599 17.6348 77.8997 15.6616C64.6311 13.3596 59.2095 31.1181 59.2095 31.1181C59.2095 31.1181 57.6401 40.3262 57.7828 45.9169C57.7828 51.3431 58.2108 71.2392 58.2108 71.2392L100.014 43.4504C100.157 43.286 100.299 43.1216 100.299 42.9571V28.8161C100.014 28.3228 99.7288 28.1584 99.3008 27.6651Z" fill="url(#paint4_linear_2_680)"/>
<path d="M172.35 282.204C167.784 282.204 162.648 280.395 157.369 276.942C138.964 264.774 124.126 234.848 124.126 210.512V87.5179C124.126 63.3466 109.288 33.749 91.1684 21.5811C82.4653 15.826 74.3329 14.8395 68.1979 18.9502C62.063 23.061 58.7815 31.6114 58.7815 43.286V70.7459C58.7815 71.0748 58.4961 71.4037 58.2108 71.4037C57.9254 71.4037 57.6401 71.0748 57.6401 70.7459V43.1216C57.6401 31.1181 61.2069 22.0744 67.6272 17.7992C74.0475 13.524 82.6079 14.5106 91.7391 20.4301C110.287 32.7624 125.267 62.6888 125.267 87.3535V210.348C125.267 234.355 139.963 263.788 158.082 275.791C166.785 281.546 174.775 282.533 180.91 278.422C187.045 274.311 190.326 265.761 190.326 254.251V239.781C190.326 227.284 194.036 217.912 200.742 213.472C207.447 209.032 216.293 210.019 225.709 216.267L273.077 248.002C273.362 248.167 273.362 248.496 273.22 248.825C273.077 249.153 272.792 249.153 272.506 248.989L224.853 217.583C215.865 211.499 207.305 210.512 201.027 214.787C194.749 219.063 191.182 227.942 191.182 239.945V254.415C191.182 266.419 187.616 275.298 181.195 279.573C178.485 281.217 175.488 282.204 172.35 282.204Z" fill="url(#paint5_linear_2_680)"/>
<path d="M135.255 114.484V110.045L139.677 107.25V111.525L135.255 114.484Z" fill="#DDE1ED"/>
<path d="M147.667 98.0412V93.766L156.085 88.1754V92.4506L147.667 98.0412Z" fill="#DDE1ED"/>
<path d="M135.683 97.2191V92.7794L156.085 79.2961V83.7357L135.683 97.2191Z" fill="#DDE1ED"/>
<path d="M142.816 109.387V105.112L159.794 93.7661V98.2057L142.816 109.387Z" fill="#DDE1ED"/>
<path d="M135.683 106.098V101.659L144.1 96.2325V100.508L135.683 106.098Z" fill="#DDE1ED"/>
<path d="M140.676 156.743V161.018L135.54 164.471V160.032L140.676 156.743Z" fill="#DDE1ED"/>
<path d="M149.95 150.495V154.77L144.814 158.223V153.948L149.95 150.495Z" fill="#DDE1ED"/>
<path d="M155.657 138.656V142.931L135.683 156.25V151.81L155.657 138.656Z" fill="#DDE1ED"/>
<path d="M145.67 124.843V120.568L155.657 113.991V118.266L145.67 124.843Z" fill="#DDE1ED"/>
<path d="M135.54 131.585V127.31L140.676 123.857V128.296L135.54 131.585Z" fill="#DDE1ED"/>
<path d="M135.54 139.807V135.367L145.242 128.954V133.229L135.54 139.807Z" fill="#DDE1ED"/>
<path d="M149.236 130.598V126.323L155.657 122.048V126.323L149.236 130.598Z" fill="#DDE1ED"/>
<path d="M145.67 175.324V171.048L155.657 164.471V168.746L145.67 175.324Z" fill="#DDE1ED"/>
<path d="M135.54 182.23V177.79L140.676 174.501V178.777L135.54 182.23Z" fill="#DDE1ED"/>
<path d="M135.54 190.287V186.012L145.242 179.435V183.71L135.54 190.287Z" fill="#DDE1ED"/>
<path d="M149.236 181.079V176.804L155.657 172.529V176.968L149.236 181.079Z" fill="#DDE1ED"/>
<path d="M253.531 221.693L250.249 219.556L254.672 216.596L257.954 218.733L253.531 221.693Z" fill="#DDE1ED"/>
<path d="M259.809 209.361L256.527 207.223L264.945 201.633L268.226 203.77L259.809 209.361Z" fill="#DDE1ED"/>
<path d="M241.118 212.978L237.979 210.676L258.239 197.193L261.521 199.331L241.118 212.978Z" fill="#DDE1ED"/>
<path d="M260.95 216.76L257.811 214.458L274.789 203.277L277.928 205.414L260.95 216.76Z" fill="#DDE1ED"/>
<path d="M247.824 217.418L244.542 215.116L252.96 209.69L256.242 211.827L247.824 217.418Z" fill="#DDE1ED"/>
</g>
<path d="M31.1029 231.559L29.2481 232.875L24.6826 229.751L26.68 228.6L31.1029 231.559Z" fill="white"/>
<path d="M34.6697 229.257L32.8149 230.408L28.2494 227.448L30.1041 226.297L34.6697 229.257Z" fill="white"/>
<path d="M38.0939 226.955L36.2392 228.106L31.6736 225.147L33.671 223.831L38.0939 226.955Z" fill="white"/>
<path d="M41.6607 224.489L39.8059 225.804L35.2404 222.844L37.0951 221.529L41.6607 224.489Z" fill="white"/>
<path d="M289.342 299.634L255.814 277.271C254.958 276.778 253.959 276.449 252.96 276.285C252.96 276.285 252.96 276.285 252.817 276.285C252.675 276.285 252.389 276.285 252.247 276.285C252.104 276.285 252.104 276.285 251.961 276.285C251.819 276.285 251.533 276.285 251.391 276.449C251.248 276.449 251.248 276.449 251.105 276.449C250.963 276.449 250.677 276.613 250.535 276.613C250.392 276.613 250.392 276.613 250.249 276.613C249.964 276.778 249.821 276.778 249.536 276.942L224.425 293.714L200.599 309.664L198.316 309.993V312.459V312.788C198.459 313.446 198.887 314.104 199.743 314.761L233.414 337.124C234.27 337.617 235.269 337.946 236.267 338.111C236.267 338.111 236.267 338.111 236.41 338.111C236.553 338.111 236.838 338.111 236.981 338.111C237.123 338.111 237.123 338.111 237.266 338.111C237.409 338.111 237.694 338.11 237.837 337.946C237.979 337.946 237.979 337.946 238.122 337.946C238.265 337.946 238.55 337.782 238.693 337.782C238.835 337.782 238.835 337.782 238.978 337.782C239.263 337.617 239.406 337.617 239.692 337.453L289.77 304.073C290.626 303.58 290.911 302.922 290.911 302.1V299.798L289.342 299.634Z" fill="white"/>
<path d="M199.458 308.184L224.568 291.412L263.518 317.228L239.549 334.657C237.837 335.808 235.126 335.644 233.414 334.493L199.743 312.295C198.031 311.144 197.888 309.335 199.458 308.184Z" fill="url(#paint6_linear_2_680)"/>
<path d="M249.679 274.64L224.568 291.412L263.233 317.063L289.627 301.278C291.339 300.127 291.197 298.318 289.342 297.167L255.671 274.805C254.102 273.654 251.248 273.654 249.679 274.64Z" fill="url(#paint7_linear_2_680)"/>
<path d="M290.769 299.14C290.911 299.963 290.483 300.785 289.627 301.278L239.549 334.657C238.693 335.315 237.409 335.48 236.267 335.48L239.549 301.278L290.769 299.14Z" fill="url(#paint8_linear_2_680)"/>
<path d="M198.459 310.322C198.316 309.5 198.744 308.677 199.6 308.184L249.679 274.805C250.535 274.147 251.819 273.982 252.96 273.982L249.679 308.02L198.459 310.322Z" fill="url(#paint9_linear_2_680)"/>
<path d="M236.553 321.01C236.41 321.01 236.41 321.01 236.267 321.01H235.697C234.698 320.845 233.842 320.516 233.129 320.023L199.458 297.661C198.744 297.167 198.174 296.51 198.031 295.852H197.888L197.746 295.194V295.03C197.746 294.865 197.746 294.701 197.746 294.536C197.746 294.372 197.746 294.372 197.746 294.372C197.746 294.207 197.888 294.043 197.888 293.879C197.888 293.714 197.888 293.714 198.031 293.714C198.174 293.55 198.316 293.385 198.316 293.221L198.459 293.056C198.602 292.892 198.887 292.728 199.172 292.563L249.251 259.184C249.536 259.019 249.821 258.855 250.107 258.69H250.249C250.535 258.526 250.677 258.526 250.963 258.526H251.105C251.391 258.526 251.676 258.362 251.819 258.362H251.961C252.247 258.362 252.532 258.362 252.675 258.362H253.246C254.244 258.526 255.1 258.855 255.814 259.348L289.485 281.711C290.198 282.204 290.769 282.862 290.911 283.519H291.054L291.197 284.177V284.342C291.197 284.506 291.197 284.67 291.197 284.835C291.197 284.999 291.197 284.999 291.197 284.999C291.197 285.164 291.054 285.328 291.054 285.493C291.054 285.657 291.054 285.657 290.911 285.657C290.769 285.822 290.626 285.986 290.626 286.15L290.483 286.315C290.341 286.479 290.055 286.644 289.77 286.808L239.692 320.188C239.406 320.352 239.121 320.516 238.835 320.681H238.693C238.407 320.845 238.265 320.845 237.979 320.845H237.837C237.551 320.845 237.266 321.01 237.123 321.01H236.981C236.838 321.01 236.695 321.01 236.553 321.01ZM237.694 319.53L237.979 320.023L237.837 319.365C237.979 319.365 238.122 319.201 238.407 319.201L238.835 319.694L238.693 319.037C238.978 318.872 239.121 318.872 239.263 318.708L289.342 285.328C289.485 285.164 289.627 285.164 289.77 284.999L290.198 285.328L289.77 284.835C289.913 284.67 289.913 284.67 289.913 284.506C290.055 284.342 290.055 284.177 290.055 284.177C290.055 284.013 290.055 283.848 290.055 283.848C289.913 283.355 289.627 282.862 288.914 282.368L255.243 260.006C254.53 259.513 253.674 259.184 252.675 259.184H252.389C252.247 259.184 252.104 259.184 251.961 259.184H251.676C251.533 259.184 251.391 259.184 251.105 259.184L250.82 258.69L250.963 259.348C250.82 259.348 250.677 259.513 250.392 259.513L249.964 259.019L250.107 259.677C249.821 259.841 249.679 259.841 249.536 260.006L199.743 293.55C199.6 293.714 199.458 293.714 199.315 293.879C199.172 294.043 199.03 294.207 199.03 294.207C198.887 294.372 198.887 294.536 198.887 294.536C198.887 294.701 198.887 294.865 198.887 294.865C199.03 295.358 199.315 295.852 200.028 296.345L233.699 318.708C234.413 319.201 235.269 319.53 236.267 319.53H236.41C236.553 319.53 236.695 319.53 236.838 319.53H237.123C237.409 319.694 237.551 319.694 237.694 319.53Z" fill="white"/>
<path opacity="0.4" d="M290.341 285.493C290.483 285.328 290.483 285.164 290.626 285.164V284.999C290.626 284.835 290.769 284.671 290.769 284.671V284.506C290.769 284.342 290.769 284.177 290.769 284.177C290.626 283.519 290.198 282.862 289.342 282.204L255.671 259.841C254.815 259.348 253.816 259.019 252.817 258.855C252.817 258.855 252.817 258.855 252.675 258.855C252.532 258.855 252.247 258.855 252.104 258.855C251.961 258.855 251.961 258.855 251.819 258.855C251.676 258.855 251.391 258.855 251.248 259.019C251.105 259.019 251.105 259.019 250.963 259.019C250.82 259.019 250.535 259.184 250.392 259.184C250.249 259.184 250.249 259.184 250.107 259.184C249.821 259.348 249.679 259.348 249.393 259.513L232.701 270.694L224.283 276.285L199.172 293.056C198.887 293.221 198.744 293.385 198.602 293.55C198.602 293.55 198.602 293.714 198.459 293.714C198.316 293.879 198.316 294.043 198.174 294.043V294.207C198.174 294.372 198.031 294.536 198.031 294.536V294.701C198.031 294.865 198.031 295.03 198.031 295.03C198.174 295.687 198.602 296.345 199.458 297.003L233.129 319.365C233.985 319.859 234.983 320.188 235.982 320.352C235.982 320.352 235.982 320.352 236.125 320.352C236.267 320.352 236.553 320.352 236.695 320.352C236.838 320.352 236.838 320.352 236.981 320.352C237.123 320.352 237.409 320.352 237.551 320.188C237.694 320.188 237.694 320.188 237.837 320.188C237.979 320.188 238.265 320.023 238.407 320.023C238.55 320.023 238.55 320.023 238.693 320.023C238.978 319.859 239.121 319.859 239.406 319.694L289.485 286.315C289.913 285.986 290.055 285.822 290.341 285.493C290.341 285.493 290.198 285.657 290.341 285.493Z" fill="white"/>
</g>
<defs>
<filter id="filter0_d_2_680" x="43.1846" y="-20.7811" width="286.031" height="323.721" filterUnits="userSpaceOnUse" color-interpolation-filters="sRGB">
<feFlood flood-opacity="0" result="BackgroundImageFix"/>
<feColorMatrix in="SourceAlpha" type="matrix" values="0 0 0 0 0 0 0 0 0 0 0 0 0 0 0 0 0 0 127 0" result="hardAlpha"/>
<feOffset dy="6.28035"/>
<feGaussianBlur stdDeviation="7.22775"/>
<feComposite in2="hardAlpha" operator="out"/>
<feColorMatrix type="matrix" values="0 0 0 0 0 0 0 0 0 0 0 0 0 0 0 0 0 0 0.25 0"/>
<feBlend mode="normal" in2="BackgroundImageFix" result="effect1_dropShadow_2_680"/>
<feBlend mode="normal" in="SourceGraphic" in2="effect1_dropShadow_2_680" result="shape"/>
</filter>
<linearGradient id="paint0_linear_2_680" x1="22.613" y1="187.756" x2="321.198" y2="324.264" gradientUnits="userSpaceOnUse">
<stop stop-color="#3A9BD5"/>
<stop offset="0.3053" stop-color="#3A9BD5"/>
<stop offset="0.3555" stop-color="#3A9BD5"/>
<stop offset="0.5988" stop-color="#3999D4"/>
<stop offset="0.6883" stop-color="#3592CF"/>
<stop offset="0.7522" stop-color="#2F86C7"/>
<stop offset="0.8039" stop-color="#2676BC"/>
<stop offset="0.8102" stop-color="#2573BA"/>
</linearGradient>
<linearGradient id="paint1_linear_2_680" x1="30.3496" y1="297.055" x2="291.143" y2="201.643" gradientUnits="userSpaceOnUse">
<stop stop-color="#59BDEF"/>
<stop offset="1" stop-color="#7BDAFF"/>
</linearGradient>
<linearGradient id="paint2_linear_2_680" x1="345.345" y1="24.8574" x2="130.897" y2="264.494" gradientUnits="userSpaceOnUse">
<stop stop-color="#59BDEF"/>
<stop offset="1" stop-color="#7BDAFF"/>
</linearGradient>
<linearGradient id="paint3_linear_2_680" x1="226.121" y1="224.99" x2="175.862" y2="248.457" gradientUnits="userSpaceOnUse">
<stop stop-color="#59BDEF"/>
<stop offset="1" stop-color="#7BDAFF"/>
</linearGradient>
<linearGradient id="paint4_linear_2_680" x1="79.9802" y1="37.8182" x2="24.0377" y2="54.1302" gradientUnits="userSpaceOnUse">
<stop stop-color="#59BDEF"/>
<stop offset="1" stop-color="#7BDAFF"/>
</linearGradient>
<linearGradient id="paint5_linear_2_680" x1="57.4642" y1="148.659" x2="272.917" y2="148.659" gradientUnits="userSpaceOnUse">
<stop stop-color="#59BDEF"/>
<stop offset="1" stop-color="#7BDAFF"/>
</linearGradient>
<linearGradient id="paint6_linear_2_680" x1="236.071" y1="356.955" x2="235.946" y2="309.006" gradientUnits="userSpaceOnUse">
<stop offset="0.7677" stop-color="#59BDEF"/>
<stop offset="0.8452" stop-color="#55B8EB"/>
<stop offset="0.9318" stop-color="#49ABE1"/>
<stop offset="1" stop-color="#3A9BD5"/>
</linearGradient>
<linearGradient id="paint7_linear_2_680" x1="322.958" y1="298.87" x2="250.981" y2="298.68" gradientUnits="userSpaceOnUse">
<stop offset="0.7677" stop-color="#59BDEF"/>
<stop offset="0.8452" stop-color="#55B8EB"/>
<stop offset="0.9318" stop-color="#49ABE1"/>
<stop offset="1" stop-color="#3A9BD5"/>
</linearGradient>
<linearGradient id="paint8_linear_2_680" x1="304.355" y1="344.456" x2="268.084" y2="290.113" gradientUnits="userSpaceOnUse">
<stop offset="0.7677" stop-color="#3A9BD5"/>
<stop offset="0.8386" stop-color="#3896D2"/>
<stop offset="0.9179" stop-color="#3189C9"/>
<stop offset="1" stop-color="#2573BA"/>
</linearGradient>
<linearGradient id="paint9_linear_2_680" x1="237.971" y1="274.594" x2="226.092" y2="327.099" gradientUnits="userSpaceOnUse">
<stop stop-color="#7BDAFF"/>
<stop offset="1" stop-color="#59BDEF"/>
</linearGradient>
<clipPath id="clip0_2_680">
<rect width="333" height="429" fill="white"/>
</clipPath>
</defs>
</svg>
